<?xml version="1.0" encoding="UTF-8" standalone="no"?>
<!-- Created with Inkscape (http://www.inkscape.org/) -->

<svg
   width="11.222679mm"
   height="10.469098mm"
   viewBox="0 0 11.222679 10.469098"
   version="1.1"
   id="svg1"
   inkscape:version="1.3 (0e150ed6c4, 2023-07-21)"
   sodipodi:docname="favicon.svg"
   xmlns:inkscape="http://www.inkscape.org/namespaces/inkscape"
   xmlns:sodipodi="http://sodipodi.sourceforge.net/DTD/sodipodi-0.dtd"
   xmlns:xlink="http://www.w3.org/1999/xlink"
   xmlns="http://www.w3.org/2000/svg"
   xmlns:svg="http://www.w3.org/2000/svg">
  <sodipodi:namedview
     id="namedview1"
     pagecolor="#000000"
     bordercolor="#666666"
     borderopacity="1.0"
     inkscape:showpageshadow="2"
     inkscape:pageopacity="0.0"
     inkscape:pagecheckerboard="0"
     inkscape:deskcolor="#d1d1d1"
     inkscape:document-units="mm"
     inkscape:zoom="16"
     inkscape:cx="14.9375"
     inkscape:cy="16.25"
     inkscape:window-width="2560"
     inkscape:window-height="1412"
     inkscape:window-x="0"
     inkscape:window-y="0"
     inkscape:window-maximized="1"
     inkscape:current-layer="layer1" />
  <defs
     id="defs1">
    <linearGradient
       id="linearGradient11"
       inkscape:collect="always">
      <stop
         style="stop-color:#d56bdc;stop-opacity:1;"
         offset="0"
         id="stop11" />
      <stop
         style="stop-color:#551957;stop-opacity:1;"
         offset="1"
         id="stop12" />
    </linearGradient>
    <linearGradient
       inkscape:collect="always"
       xlink:href="#linearGradient11"
       id="linearGradient12"
       x1="141.84123"
       y1="117.73958"
       x2="142.17929"
       y2="126.92863"
       gradientUnits="userSpaceOnUse" />
  </defs>
  <g
     inkscape:label="Layer 1"
     inkscape:groupmode="layer"
     id="layer1"
     transform="translate(-138.33289,-117.13648)">
    <g
       id="path78">
      <path
         style="color:#000000;-inkscape-font-specification:Satisfy;fill:#ffffff;stroke-linecap:round;stroke-linejoin:round;-inkscape-stroke:none;paint-order:stroke fill markers"
         d="m 141.85547,117.13867 c -0.4889,0.0157 -1.01283,0.47216 -1.24908,0.74976 -0.0663,0.0323 -0.52672,0.63791 -0.65008,0.96284 -0.32387,0.46535 -0.29145,1.24851 -0.74913,1.5452 -0.49033,0.10586 -0.91675,0.62138 -0.68466,1.1238 0.18067,0.27011 0.44462,0.35206 0.16669,0.69709 -0.37337,0.40531 -0.60984,1.21519 0.1099,1.4142 0.34999,0.0948 1.09286,-0.14092 1.20878,-0.2096 0.37556,-0.0952 0.58848,-0.8813 0.63277,-0.89043 -0.0333,0.28656 -7.2e-4,0.44916 0.0774,0.7227 0.0781,0.27354 -0.25236,1.03901 -0.25794,1.6581 -0.006,0.61909 -0.0125,1.37531 0.38599,1.93953 0.40262,0.62668 1.45319,1.03172 2.3213,0.52408 0.49888,-0.18206 0.67211,-0.97239 1.24877,-0.65512 0.35149,0.0453 0.75506,-0.3181 0.94942,-0.34688 0.15936,0.52144 0.98762,0.37026 1.2873,0.0373 0.24071,0.0272 0.42717,0.43361 1.16505,0.31152 0.73788,-0.12209 1.554,-1.38225 1.6526,-1.564 0.20243,-0.35092 0.0139,-0.95335 -0.25659,-1.20225 -0.32515,-0.36302 -0.78655,0.93173 -0.86329,0.0189 -0.0768,-0.91286 -0.85733,-1.02319 -1.36736,-0.71828 -0.2798,-0.12396 -0.79384,-0.0663 -1.06856,0.19328 -0.21337,0.56547 -0.46516,-0.20296 -1.09206,-0.3536 0.0536,-0.30888 -0.0703,-0.85788 0.36517,-0.45084 0.34346,0.15279 0.74943,0.0127 1.05677,-0.10796 0.56049,0.35692 1.31993,0.0987 1.67252,-0.43131 0.36322,-0.36869 0.45653,-1.0539 -0.003,-1.38724 -0.57857,0.0325 -0.0259,-0.79746 -0.46297,-0.97867 -0.16095,-0.74075 -1.21251,-0.95489 -1.73072,-0.45118 -0.037,-0.24326 0.2522,-0.8185 -0.0504,-1.44161 -0.3026,-0.62311 -1.49387,-0.53544 -1.70628,0.26806 -0.21241,0.8035 -0.20788,0.85005 -0.70671,1.0249 -0.49883,0.17485 -0.26741,-0.26952 -0.21728,-0.88729 0.0501,-0.61777 -0.56442,-1.15608 -1.18466,-1.11498 z m 4.69726,1.87696 c -0.13987,-0.006 -0.0693,-4e-4 0,0 z m -6.16406,4.04882 c -0.0549,0.0698 -0.15369,0.20478 0,0 z m 7.19727,-0.62695 c -0.0604,0.0457 -0.0986,0.0855 0,0 z m -4.88086,1.34178 c 0.11883,0.42873 0.58445,0.37125 0.49593,1.07419 -0.0885,0.70294 -0.37106,0.83752 -0.81401,1.06278 -0.14703,-0.52099 0.001,-1.08227 0.11138,-1.59975 0.0502,-0.18577 0.13438,-0.3603 0.2067,-0.53722 z"
         id="path13"
         sodipodi:nodetypes="ccccccccczzccccczcczccccccccczzzzccccccccczccc" />
      <path
         style="color:#000000;-inkscape-font-specification:Satisfy;fill:url(#linearGradient12);stroke-linecap:round;stroke-linejoin:round;-inkscape-stroke:none;paint-order:stroke fill markers"
         d="m 141.86113,117.73958 c -0.0743,7.1e-4 -0.14537,0.0335 -0.21446,0.0724 -0.0691,0.0388 -0.13721,0.0867 -0.19327,0.12144 -0.15478,0.0982 -0.29648,0.22049 -0.42788,0.3669 -6.7e-4,-1e-5 -0.001,-1e-5 -0.002,0 -0.12687,0.14554 -0.24086,0.30291 -0.34158,0.47077 -0.0962,0.16284 -0.17536,0.31319 -0.23874,0.45114 -0.0411,0.0896 -0.0863,0.19681 -0.13436,0.32246 -0.0479,0.12165 -0.0973,0.25226 -0.14883,0.39222 -0.0515,0.13983 -0.10452,0.28686 -0.15968,0.44132 -0.0488,0.14282 -0.10043,0.288 -0.15245,0.43408 -0.13883,0.0413 -0.26162,0.0824 -0.35966,0.12092 -0.10501,0.0362 -0.1708,0.0601 -0.20671,0.078 -0.0612,0.0253 -0.10717,0.046 -0.14056,0.0667 -0.05,0.0278 -0.0757,0.0849 -0.0801,0.14624 -2.1e-4,0.003 -2.1e-4,0.005 0,0.008 0.003,0.0297 0.0144,0.0593 0.0367,0.0801 0.0216,0.0202 0.0504,0.0302 0.0801,0.0351 0.0267,0.005 0.055,0.006 0.0879,0.002 0.004,-8.3e-4 0.008,-0.002 0.0119,-0.004 0.001,-4.7e-4 0.0205,-0.006 0.047,-0.0114 0.0265,-0.005 0.0619,-0.0103 0.10749,-0.0176 0.0686,-0.011 0.16027,-0.0267 0.25166,-0.0398 -0.0297,0.0796 -0.0581,0.15867 -0.0858,0.23616 -1e-5,6.7e-4 -1e-5,10e-4 0,0.002 -0.0328,0.0985 -0.067,0.18974 -0.0997,0.27337 -0.0772,0.20577 -0.13785,0.37138 -0.18552,0.49609 -0.0508,0.12682 -0.0971,0.23046 -0.13643,0.30903 -0.0395,0.0789 -0.0791,0.14474 -0.1173,0.19688 -0.0397,0.0541 -0.086,0.11436 -0.14056,0.17984 -0.0282,0.0335 -0.003,0.0845 0.0408,0.0822 0.15199,-0.0111 0.27676,-0.0259 0.37517,-0.045 0.0965,-0.0186 0.17698,-0.0379 0.24185,-0.0568 0.0685,-0.019 0.12626,-0.0401 0.17415,-0.0641 0.001,-6.1e-4 0.003,-5.5e-4 0.004,-0.002 0.0479,-0.0305 0.0894,-0.0761 0.12506,-0.13487 l 0.002,-0.002 c 0.0392,-0.0593 0.0742,-0.13636 0.10749,-0.22841 0.0376,-0.0941 0.0762,-0.21128 0.11317,-0.3514 v -0.002 c 0.0406,-0.13677 0.0851,-0.30148 0.13281,-0.49609 0.0412,-0.16808 0.0819,-0.32659 0.12299,-0.47852 0.0905,-0.009 0.18125,-0.0173 0.27182,-0.0238 0.10567,-0.007 0.20663,-0.0114 0.30076,-0.0114 0.10421,0 0.19587,0.007 0.27698,0.0212 0.0707,0.0118 0.13318,0.0285 0.19379,0.045 -0.0372,0.22696 -0.071,0.44141 -0.1018,0.63666 -0.0332,0.20684 -0.053,0.37456 -0.0605,0.50591 -0.008,0.13097 -0.006,0.25912 0.006,0.38292 0.007,0.10391 0.0186,0.20856 0.0372,0.31264 6.5e-4,6.9e-4 0.001,0.001 0.002,0.002 0.023,0.11116 0.058,0.20117 0.10749,0.2713 0.0122,0.0176 0.0342,0.0255 0.0548,0.0196 l 0.0677,-0.0222 c -0.0667,0.14595 -0.12744,0.29534 -0.18138,0.44855 -0.0923,0.25883 -0.1647,0.51864 -0.21653,0.77773 -1e-5,6.7e-4 -1e-5,10e-4 0,0.002 -0.0359,0.19313 -0.0572,0.37057 -0.0703,0.5426 l 0.005,0.50591 c 0.0107,0.12071 0.0231,0.24183 0.0512,0.35553 0.0563,0.21031 0.13764,0.39508 0.24392,0.55449 -1e-5,6.7e-4 -1e-5,0.001 0,0.002 0.11014,0.15952 0.24291,0.28465 0.39636,0.37672 0.16283,0.0953 0.3391,0.10923 0.51779,0.13901 0.16238,0.0271 0.31464,-0.0342 0.44907,-0.0977 0.13513,-0.0638 0.29569,-0.15709 0.41238,-0.26562 0.013,-0.0113 0.12599,-0.11133 0.27337,-0.26975 0.13452,-0.14459 0.29088,-0.34102 0.41806,-0.54467 0.0395,0.056 0.0798,0.11192 0.13643,0.154 0.0992,0.0744 0.22907,0.10955 0.38705,0.10955 0.13537,0 0.26111,-0.0273 0.37466,-0.0822 0.11513,-0.0503 0.21859,-0.12071 0.30695,-0.21291 0.0921,-0.0922 0.16952,-0.20072 0.2341,-0.32608 0.0668,-0.12969 0.0946,-0.26887 0.15038,-0.39429 0.0137,-0.0309 0.0505,-0.0507 0.11317,-0.0687 0.0627,-0.018 0.14379,-0.0308 0.21497,-0.0739 0.1225,-0.0742 0.23564,-0.15063 0.34003,-0.22893 0.0141,-0.0105 0.0227,-0.019 0.0351,-0.0289 -0.0153,0.0705 -0.0296,0.14205 -0.0429,0.20309 -0.0257,0.10644 -0.0528,0.21844 -0.0822,0.3359 -0.0294,0.11771 -0.0564,0.22919 -0.0822,0.33589 -0.0293,0.10263 -0.0538,0.19223 -0.0724,0.26975 -0.0217,0.076 -0.034,0.12344 -0.0387,0.15193 -0.005,0.0275 0.003,0.0641 0.0274,0.0842 0.025,0.0206 0.0515,0.0253 0.0811,0.0253 0.0524,0 0.11175,-0.0139 0.17776,-0.0372 0.0656,-0.0231 0.12595,-0.051 0.18397,-0.0858 6.9e-4,-6.5e-4 0.001,-0.001 0.002,-0.002 0.0602,-0.0401 0.10461,-0.0826 0.12092,-0.13694 v -5.2e-4 c 3e-5,-0.001 3e-5,-0.002 0,-0.003 0.0108,-0.0504 0.0242,-0.10363 0.0388,-0.15813 0.0148,-0.0593 0.0287,-0.12624 0.0434,-0.19948 v -0.002 c 0.0183,-0.0768 0.0386,-0.16056 0.0605,-0.25167 0.0211,-0.0915 0.0486,-0.19909 0.0801,-0.31832 0.0607,-0.0892 0.12065,-0.17567 0.18138,-0.25787 v -0.002 c 0.0649,-0.0864 0.12908,-0.16221 0.18965,-0.22634 0.063,-0.0627 0.12424,-0.11107 0.18139,-0.14469 6.9e-4,-6.5e-4 0.001,-0.001 0.002,-0.002 0.0564,-0.0365 0.10709,-0.0527 0.15451,-0.0527 0.0143,0 0.0213,0.002 0.0274,0.008 0.006,0.005 0.0135,0.0182 0.0191,0.0393 0.0121,0.0422 0.0156,0.10462 0.008,0.18551 -0.007,0.0775 -0.0218,0.16616 -0.047,0.26717 -1e-5,6.7e-4 -1e-5,0.001 0,0.002 -0.0218,0.0983 -0.0489,0.19884 -0.078,0.30076 -0.0256,0.0988 -0.0509,0.19404 -0.0765,0.28163 -0.0256,0.0842 -0.0449,0.15328 -0.0563,0.20671 -0.0193,0.0821 -0.0216,0.16208 -0.01,0.23823 0.0121,0.0728 0.0362,0.13955 0.0775,0.1974 0.0415,0.0581 0.0973,0.10419 0.16278,0.13694 0.0706,0.0374 0.15235,0.0548 0.24339,0.0548 0.0914,0 0.18351,-0.0294 0.27751,-0.0842 0.0949,-0.0496 0.18971,-0.1127 0.28318,-0.19121 0.0935,-0.0823 0.18391,-0.17272 0.26975,-0.26975 v -5.1e-4 -5.2e-4 -5.2e-4 -5.1e-4 c 0.085,-0.0998 0.1657,-0.1967 0.23978,-0.29301 0.074,-0.0962 0.13719,-0.18732 0.18965,-0.27337 v -0.002 c 0.0552,-0.0847 0.096,-0.15285 0.12299,-0.2067 0.0312,-0.0623 0.0507,-0.11601 0.0507,-0.1664 0,-0.0476 -0.013,-0.0919 -0.0527,-0.11679 -1.4e-4,-9e-5 1.5e-4,-0.002 0,-0.002 -0.0173,-0.0114 -0.0375,-0.0154 -0.0563,-0.0139 -0.0203,0.002 -0.0378,0.008 -0.0563,0.0176 -0.0424,0.0212 -0.0776,0.0582 -0.11317,0.10955 -1e-5,6.7e-4 -1e-5,10e-4 0,0.002 -0.0466,0.0718 -0.11577,0.16816 -0.20722,0.28887 -0.0908,0.11618 -0.18912,0.23092 -0.29094,0.34365 -0.10128,0.11213 -0.20253,0.20645 -0.30282,0.28525 -0.095,0.0774 -0.17083,0.11163 -0.21653,0.11163 -0.0256,0 -0.0385,-0.006 -0.0455,-0.0119 -0.007,-0.006 -0.013,-0.0128 -0.0155,-0.0331 -0.003,-0.0508 0.007,-0.11405 0.0274,-0.18966 l -0.002,0.002 c 0.0407,-0.1258 0.0757,-0.24144 0.1018,-0.34571 l -0.002,0.002 c 0.0295,-0.10695 0.0538,-0.1995 0.0724,-0.27751 l 0.0605,-0.24029 v -0.002 c 0.0339,-0.12124 0.0491,-0.23392 0.0413,-0.33952 -0.004,-0.10439 -0.0243,-0.19439 -0.061,-0.27181 -0.0322,-0.0792 -0.0799,-0.14521 -0.14262,-0.19121 -0.0633,-0.0464 -0.13714,-0.0708 -0.21653,-0.0708 -0.0918,0 -0.18091,0.0215 -0.26768,0.061 -0.0849,0.0348 -0.16568,0.081 -0.24237,0.1385 -0.0721,0.0569 -0.14029,0.12187 -0.20463,0.19378 0.008,-0.0263 0.0152,-0.0549 0.0232,-0.0791 0.0145,-0.047 0.0275,-0.0829 0.0372,-0.10542 0.009,-0.0204 0.003,-0.0442 -0.014,-0.0584 -0.0277,-0.023 -0.0613,-0.04 -0.0977,-0.0491 -0.0268,-0.0109 -0.0538,-0.0191 -0.0816,-0.0233 -0.0319,-0.004 -0.063,-0.006 -0.0941,-0.006 -0.002,-1.2e-4 -0.004,-1.2e-4 -0.006,0 -0.0366,0.004 -0.0717,0.0127 -0.10542,0.0253 -0.0317,0.008 -0.0631,0.0196 -0.0941,0.0351 -0.0305,0.0134 -0.0597,0.0323 -0.0878,0.0563 -0.008,0.007 -0.0131,0.0153 -0.0155,0.0253 -0.0306,0.1162 -0.0568,0.21935 -0.0822,0.31988 -0.0197,0.017 -0.0355,0.0319 -0.0584,0.0491 -0.0722,0.0542 -0.15318,0.10783 -0.24029,0.16227 -0.0831,0.0505 -0.16953,0.1013 -0.25994,0.14831 -0.064,0.0333 -0.12344,0.0578 -0.18345,0.0837 6.6e-4,-0.007 0.001,-0.0117 0.002,-0.0191 0.004,-0.0449 0.006,-0.0836 0.006,-0.11523 0,-0.14891 -0.0241,-0.27733 -0.076,-0.38499 -0.0499,-0.10756 -0.11244,-0.1965 -0.18759,-0.26769 -0.0697,-0.0697 -0.14294,-0.12223 -0.22272,-0.15813 -0.0689,-0.0326 -0.12702,-0.0504 -0.18139,-0.0563 l -0.006,-10e-4 c -0.002,-1.6e-4 -0.004,-0.002 -0.006,-0.002 -0.005,-0.002 -0.0101,-0.004 -0.0155,-0.006 -0.0173,-0.009 -0.0336,-0.01 -0.0491,-0.01 -0.0707,0 -0.14285,0.0101 -0.21652,0.0294 -0.0734,0.0157 -0.14352,0.0412 -0.20929,0.076 v -0.002 c -0.0637,0.0318 -0.12022,0.0732 -0.17157,0.12454 -6.9e-4,6.5e-4 -0.001,0.001 -0.002,0.002 -0.0486,0.0527 -0.0854,0.1154 -0.10956,0.18396 -0.06,0.0724 -0.1159,0.14851 -0.16226,0.2341 -1e-5,6.7e-4 -1e-5,0.001 0,0.002 -0.0451,0.0902 -0.083,0.1808 -0.11317,0.27131 -0.0301,0.0904 -0.0531,0.17843 -0.0682,0.26561 -0.0187,0.0864 -0.0289,0.16651 -0.0289,0.2403 0,0.10106 0.006,0.20922 0.0176,0.32453 0.001,0.0164 0.004,0.0273 0.006,0.0388 -0.22073,0.32067 -0.39073,0.53107 -0.70125,0.7891 -0.0885,0.0778 -0.18716,0.14419 -0.29714,0.19741 -0.10728,0.0519 -0.22011,0.078 -0.34158,0.078 -0.0726,0 -0.1458,-0.0189 -0.22066,-0.0563 -0.0718,-0.0359 -0.1393,-0.0958 -0.20154,-0.1819 -0.0582,-0.0856 -0.10641,-0.19669 -0.14211,-0.3359 -0.0317,-0.13744 -0.0444,-0.30684 -0.0372,-0.50953 0.0182,-0.45155 0.0823,-0.8801 0.1912,-1.28364 v -0.002 c 0.11303,-0.40429 0.25092,-0.75765 0.41031,-1.05833 0.16351,-0.30521 0.33757,-0.54571 0.52348,-0.72089 0.18563,-0.17492 0.3563,-0.25579 0.5116,-0.25579 0.0749,0 0.13865,0.0276 0.20102,0.0899 0.0565,0.0565 0.087,0.15036 0.0801,0.29301 -0.0109,0.15176 -0.032,0.28897 -0.0641,0.41031 -0.0282,0.10594 -0.0703,0.20706 -0.12712,0.30644 -6.7e-4,-1e-5 -0.001,-1e-5 -0.002,0 -0.0504,0.0907 -0.11627,0.15138 -0.20516,0.18759 -0.0261,0.01 -0.0392,0.0386 -0.0294,0.0646 0.0343,0.0877 0.0717,0.15632 0.11369,0.20671 6.5e-4,6.9e-4 0.001,0.001 0.002,0.002 0.0423,0.0462 0.0825,0.0821 0.12454,0.10749 0.0465,0.0296 0.0981,0.0483 0.15038,0.0527 0.001,5e-5 0.003,5e-5 0.004,0 0.10114,0 0.195,-0.0301 0.27336,-0.0879 0.0796,-0.0597 0.14453,-0.13669 0.19534,-0.23048 0.0537,-0.0959 0.0943,-0.20303 0.12092,-0.32039 v -0.002 c 0.03,-0.11661 0.0473,-0.2376 0.0548,-0.36122 0.004,-0.1324 -0.007,-0.26402 -0.0331,-0.39274 -0.0225,-0.1094 -0.0611,-0.20932 -0.11369,-0.30075 0.023,0.005 0.0466,0.009 0.0703,0.009 0.0807,0 0.16481,-0.0286 0.25373,-0.0786 0.0919,-0.0459 0.1833,-0.10602 0.2775,-0.18138 v 0.002 c 0.0974,-0.0749 0.19218,-0.16324 0.28526,-0.25994 0.0308,-0.0308 0.0576,-0.061 0.0858,-0.092 2.8e-4,0.004 -3.4e-4,0.008 0,0.0119 0.0115,0.12219 0.0398,0.22578 0.0842,0.31057 -1e-5,6.7e-4 -1e-5,0.001 0,0.002 0.0433,0.0787 0.0985,0.13918 0.16588,0.17777 0.0645,0.0403 0.12808,0.0625 0.19121,0.0625 0.001,5e-5 0.003,5e-5 0.004,0 0.11511,-0.008 0.22919,-0.0324 0.34365,-0.0744 6.7e-4,10e-6 0.001,10e-6 0.002,0 0.10071,-0.0387 0.20494,-0.0987 0.31419,-0.17777 0.0818,-0.0621 0.15071,-0.16121 0.22066,-0.25786 0.003,0.0453 0.001,0.0974 0.0103,0.13487 -1e-5,6.7e-4 -1e-5,0.001 0,0.002 0.0189,0.0679 0.0385,0.12405 0.0584,0.16795 0.0246,0.0533 0.0576,0.0971 0.0982,0.12867 6.5e-4,6.9e-4 5.5e-4,0.001 0.002,0.002 0.0381,0.0254 0.0842,0.0425 0.1328,0.0512 0.0495,0.0124 0.0993,0.0155 0.15193,0.0114 0.055,-0.004 0.10862,-0.0131 0.1602,-0.0289 0.0511,-0.0157 0.0983,-0.0345 0.13901,-0.0589 6.9e-4,-6.5e-4 0.001,-0.001 0.002,-0.002 0.0612,-0.0408 0.13065,-0.10561 0.2129,-0.19534 0.0539,-0.0585 0.10607,-0.12453 0.15968,-0.18913 0,0 0.1405,-0.23474 0.0672,-0.36484 -0.0733,-0.1301 -0.12328,-0.0679 -0.15968,-0.0243 -6.7e-4,-1e-5 -0.001,-1e-5 -0.002,0 -0.0694,0.084 -0.13592,0.16171 -0.20154,0.23462 -0.0649,0.0685 -0.12464,0.12546 -0.18139,0.17156 v -0.002 c -0.0548,0.0411 -0.0964,0.0568 -0.11317,0.0568 -0.0354,0 -0.0556,-0.008 -0.0703,-0.0176 -0.0148,-0.0157 -0.0267,-0.0332 -0.0351,-0.0584 -0.01,-0.029 -0.0163,-0.0605 -0.0196,-0.0941 1.5e-4,-0.0352 7.9e-4,-0.0677 0.004,-0.0956 v -0.004 c 0.0106,-0.053 0.0202,-0.0969 0.0274,-0.1328 0.007,-0.035 0.0122,-0.0656 0.016,-0.0915 l 0.002,-0.006 c 0.006,-0.0266 0.0124,-0.0518 0.016,-0.076 0.007,-0.0301 0.0138,-0.0623 0.0212,-0.0956 0.0368,-0.16911 0.0657,-0.30756 0.0879,-0.41444 0.0221,-0.10686 0.04,-0.19252 0.0512,-0.2558 0.0112,-0.0635 0.0176,-0.104 0.0176,-0.13436 0,-0.0283 0.002,-0.0442 -0.0119,-0.0724 -0.005,-0.009 -0.0124,-0.0169 -0.0217,-0.0217 -0.0246,-0.0124 -0.0411,-0.0119 -0.0661,-0.0119 -0.022,0 -0.0503,0.002 -0.0879,0.006 -0.0146,0.002 -0.0374,0.007 -0.0548,0.0103 0.0401,-0.082 0.0859,-0.1654 0.0682,-0.23254 -0.0171,-0.0808 -0.056,-0.14951 -0.1173,-0.19327 -6.7e-4,-1e-5 -0.001,-1e-5 -0.002,0 -0.0698,-0.0452 -0.15827,-0.0764 -0.262,-0.0956 -0.001,-5e-5 -0.003,-5e-5 -0.004,0 -0.0995,-0.009 -0.21445,0.0229 -0.34778,0.0915 -0.13449,0.0692 -0.2675,0.1719 -0.40256,0.30696 -0.13568,0.13191 -0.26098,0.29186 -0.37672,0.47853 -0.0926,0.15438 -0.16312,0.32485 -0.21497,0.50591 -0.0585,0.0669 -0.11957,0.13483 -0.18759,0.20877 -0.0836,0.0909 -0.16676,0.17402 -0.25011,0.25012 -0.083,0.0758 -0.16158,0.13784 -0.23617,0.18758 -6.9e-4,6.5e-4 -0.001,0.001 -0.002,0.002 -0.0691,0.0483 -0.12357,0.0682 -0.15813,0.0682 -0.0286,0 -0.0535,-0.0117 -0.0837,-0.045 -0.0235,-0.0259 -0.0406,-0.0774 -0.0372,-0.16226 0.004,-0.0598 0.013,-0.14096 0.0274,-0.24185 v -0.002 c 0.0179,-0.10009 0.0348,-0.20626 0.0527,-0.31678 0.1193,-0.18163 0.23232,-0.37074 0.33383,-0.56999 v -0.002 c 0.10692,-0.20659 0.20192,-0.41229 0.28319,-0.61547 0.0815,-0.20759 0.14492,-0.40811 0.19327,-0.60151 0.0522,-0.1939 0.0824,-0.37284 0.0899,-0.53898 0.007,-0.13374 0.008,-0.23901 0,-0.3204 -0.007,-0.0787 -0.0216,-0.14038 -0.0486,-0.18758 -0.0216,-0.0475 -0.0556,-0.0849 -0.1018,-0.0977 -0.0349,-0.0126 -0.0728,-0.0191 -0.11317,-0.0191 -0.0356,0 -0.0722,0.007 -0.10956,0.0191 -0.0321,0.008 -0.0653,0.0183 -0.0997,0.0336 -0.038,0.0169 -0.0759,0.0424 -0.11524,0.0739 -0.007,0.006 -0.0127,0.0145 -0.0155,0.0238 -0.0589,0.1952 -0.1123,0.38173 -0.1602,0.55862 -0.0478,0.17634 -0.0919,0.33266 -0.12868,0.4687 -0.0404,0.15782 -0.0786,0.3056 -0.11523,0.44132 -0.0222,0.0925 -0.0446,0.18991 -0.0667,0.29301 -0.01,0.0458 -0.0204,0.094 -0.031,0.14056 -0.0236,-0.0624 -0.0545,-0.1186 -0.0941,-0.17002 -0.04,-0.0559 -0.0893,-0.0998 -0.14625,-0.13281 -0.0592,-0.0381 -0.12611,-0.0584 -0.1974,-0.0584 -0.15323,0 -0.30521,0.0462 -0.45475,0.13436 -0.14558,0.0843 -0.27753,0.20023 -0.39481,0.34778 -0.10934,0.1385 -0.19777,0.30484 -0.2713,0.49041 -0.12334,0.0779 -0.29432,0.0948 -0.46302,0.0899 0.0369,-0.23078 0.0732,-0.46555 0.11317,-0.70538 v -0.002 c 0.0477,-0.2677 0.0904,-0.51848 0.12712,-0.74982 0.0368,-0.23161 0.0678,-0.43031 0.0935,-0.59945 v -5.1e-4 -5.2e-4 -5.2e-4 -5.1e-4 c 0.0258,-0.17328 0.0409,-0.28908 0.045,-0.35554 0.0114,-0.19441 -0.0274,-0.34118 -0.12867,-0.42581 -0.0555,-0.0493 -0.12239,-0.0556 -0.17777,-0.0625 -0.0559,-0.007 -0.10005,-0.0143 -0.13281,-0.047 -0.0392,-0.0392 -0.0891,-0.0568 -0.13849,-0.0563 z m 0.0331,0.46715 h 5.2e-4 c 0.0152,0 0.0181,0.002 0.0289,0.0176 l 0.006,0.006 c 0.006,0.006 0.0219,0.0387 0.0253,0.0956 0.003,0.0528 -0.003,0.13345 -0.0176,0.23823 -0.0177,0.12806 0.0242,0.27695 -0.0703,0.38085 -0.0425,0.0468 -0.0541,0.10662 -0.0625,0.1664 -0.008,0.0598 -0.0118,0.1222 -0.0253,0.18138 -1e-5,6.7e-4 -1e-5,0.001 0,0.002 -0.0257,0.12842 -0.0548,0.26965 -0.0879,0.42375 -0.0331,0.15432 -0.0687,0.31764 -0.10542,0.49041 -0.0302,0.1546 -0.0617,0.31365 -0.092,0.47439 -0.0839,-0.009 -0.17086,-0.0175 -0.26768,-0.0238 h -0.002 c -0.11496,-0.0111 -0.23536,-0.0176 -0.36122,-0.0176 -0.0718,0 -0.1458,0.004 -0.22066,0.0119 -0.0445,0.005 -0.091,0.0115 -0.13694,0.0176 0.11465,-0.38857 0.22414,-0.72656 0.32246,-0.98082 0.10636,-0.27874 0.20125,-0.51288 0.28525,-0.7028 h -0.002 c 0.0576,-0.1259 0.12216,-0.23628 0.19327,-0.33228 0.0754,-0.10056 0.15102,-0.18275 0.22479,-0.24598 6.7e-4,1e-5 0.001,1e-5 0.002,0 0.0749,-0.0678 0.14386,-0.12035 0.20877,-0.15451 0.0656,-0.0345 0.11932,-0.0486 0.15451,-0.0486 z m 1.71669,1.82005 h 5.2e-4 c 0.0454,0 0.0704,0.0127 0.0956,0.0491 6.5e-4,6.9e-4 0.001,0.001 0.002,0.002 0.0284,0.0378 0.0491,0.0837 0.0625,0.14056 6.1e-4,0.001 5.5e-4,0.003 0.002,0.004 0.0172,0.0552 0.0276,0.10966 0.031,0.16433 -1e-5,6.7e-4 -1e-5,5.5e-4 0,0.002 0.004,0.0548 0.004,0.0926 0.004,0.11163 0,0.0494 0.008,0.0915 0.031,0.1266 6.1e-4,0.001 0.001,0.003 0.002,0.004 0.0169,0.0211 0.0454,0.0331 0.0703,0.0331 0.007,0 0.0131,-0.005 0.0196,-0.006 -0.01,0.0411 -0.019,0.083 -0.0274,0.12299 -5e-5,10e-4 -5e-5,0.003 0,0.004 -0.0103,0.065 -0.0237,0.13016 -0.0372,0.19534 -0.0389,0.0492 -0.0878,0.10834 -0.15038,0.18138 -6.9e-4,6.5e-4 -0.001,10e-4 -0.002,0.002 -0.061,0.0754 -0.12891,0.14854 -0.20464,0.22066 -0.0712,0.0712 -0.14523,0.13258 -0.22273,0.1819 -6.7e-4,-1e-5 -0.001,-1e-5 -0.002,0 -0.0716,0.0478 -0.13223,0.0682 -0.18551,0.0682 -0.0736,0 -0.12378,-0.0279 -0.16795,-0.094 -0.0411,-0.0616 -0.066,-0.17808 -0.0589,-0.34933 0.007,-0.10402 0.0361,-0.22337 0.0863,-0.35967 0.0503,-0.13646 0.11186,-0.26423 0.18706,-0.3824 0.0753,-0.12198 0.15572,-0.22385 0.2403,-0.3049 0.0825,-0.0825 0.15766,-0.1173 0.22479,-0.1173 z m 2.75642,0.0294 c 0.004,0.007 0.01,0.0141 0.0119,0.031 -1e-5,6.7e-4 -1e-5,10e-4 0,0.002 0.002,0.0115 4.3e-4,0.0388 -0.006,0.0765 -5e-5,0.001 -5e-5,0.003 0,0.004 -0.003,0.0262 -0.017,0.0692 -0.045,0.12506 -0.0213,0.0386 0.0142,0.0838 0.0568,0.0724 0.0274,-0.007 0.0547,-0.012 0.0822,-0.0155 0.0316,-0.004 0.0582,-0.0105 0.0816,-0.0196 6.8e-4,-2.3e-4 10e-4,2.2e-4 0.002,0 -9.2e-4,0.007 -6.5e-4,0.007 -0.002,0.0155 -5e-5,0.001 -5e-5,0.003 0,0.004 -0.007,0.0568 -0.019,0.12947 -0.0372,0.22066 -0.0182,0.0909 -0.0406,0.18688 -0.0662,0.28526 -0.0257,0.0993 -0.0482,0.18569 -0.0667,0.25941 -1e-5,6.7e-4 -1e-5,10e-4 0,0.002 -4e-5,1.7e-4 -0.013,0.0295 -0.0408,0.0677 -6.9e-4,6.5e-4 -0.001,10e-4 -0.002,0.002 -0.0235,0.0369 -0.0571,0.0788 -0.0997,0.12506 -1e-5,6.7e-4 -1e-5,10e-4 0,0.002 -0.0381,0.045 -0.0835,0.0884 -0.13643,0.13074 -6.9e-4,6.5e-4 -0.001,0.001 -0.002,0.002 -0.0489,0.0419 -0.0988,0.0758 -0.15038,0.10336 -0.0451,0.0225 -0.0874,0.0357 -0.13074,0.0393 h -0.002 c -0.0376,-4e-4 -0.0695,-0.0147 -0.1018,-0.047 -0.005,-0.005 -0.0221,-0.0422 -0.0289,-0.10749 -0.007,-0.0685 -0.005,-0.14799 0.006,-0.23978 v -0.002 c 0.0143,-0.0922 0.038,-0.19116 0.0703,-0.29507 0.032,-0.10671 0.074,-0.20504 0.12712,-0.29714 v -5.2e-4 -5.1e-4 -5.2e-4 c 0.13093,-0.22913 0.24553,-0.38398 0.3359,-0.46095 0.0731,-0.0627 0.12931,-0.0846 0.14417,-0.0842 z m -3.95841,1.0356 c -0.0104,0.0675 -0.0238,0.13514 -0.0274,0.20516 -0.008,0.14019 0.004,0.26231 0.0351,0.36535 0.0306,0.0996 0.0707,0.18115 0.11937,0.24598 3.2e-4,6.7e-4 6.9e-4,5.5e-4 0.001,0.002 0.0212,0.0261 0.044,0.0487 0.0677,0.0692 -0.17311,0.10499 -0.33337,0.23441 -0.47904,0.39275 -0.0739,0.0803 -0.14351,0.16747 -0.21032,0.25889 -0.008,-0.0432 -0.0157,-0.0858 -0.0202,-0.12867 v -5.2e-4 -5.1e-4 -5.2e-4 -5.2e-4 c -0.0143,-0.11792 -0.0191,-0.24572 -0.0119,-0.38292 0.004,-0.0903 0.0128,-0.20475 0.0274,-0.34365 0.0174,-0.13603 0.0384,-0.28951 0.0625,-0.45888 0.17194,-0.0433 0.31362,-0.11856 0.43563,-0.22273 z m 1.33945,0.51728 v 0.001 c -0.004,0.0651 0.005,0.12968 0.0253,0.19379 -1e-5,6.7e-4 -1e-5,0.001 0,0.002 0.004,0.0103 0.009,0.0199 0.0134,0.03 -0.0598,-0.0331 -0.12605,-0.0571 -0.19844,-0.0718 0.0533,-0.0495 0.10678,-0.10142 0.15968,-0.15503 z m 1.05575,2.46807 h 5.2e-4 c 0.0282,1.3e-4 0.0475,0.0103 0.0698,0.0408 l 0.004,0.004 c 0.0267,0.0296 0.0493,0.0719 0.0661,0.12919 -5e-5,0.001 -5e-5,0.003 0,0.004 0.0203,0.054 0.0344,0.1156 0.0413,0.18552 0.007,0.0703 0.007,0.13886 0,0.20516 -1.2e-4,0.002 -1.2e-4,0.004 0,0.006 0,0.0232 -0.004,0.0524 -0.0139,0.0899 -7.3e-4,0.001 -0.001,0.003 -0.002,0.004 -0.006,0.0279 -0.0135,0.0613 -0.0212,0.0956 -0.004,7.6e-4 -0.008,10e-4 -0.0119,0.002 h -0.0548 c -0.10908,0 -0.19218,-0.017 -0.24804,-0.045 -0.0551,-0.0329 -0.0929,-0.0692 -0.11679,-0.1111 -0.0259,-0.0452 -0.0424,-0.0958 -0.0491,-0.15245 -0.007,-0.0647 -0.01,-0.12541 -0.01,-0.1819 0,0.004 0.009,-0.0293 0.0176,-0.0548 0.005,-0.0127 0.01,-0.0206 0.01,-0.0429 1e-5,-0.003 -0.002,-0.006 -0.002,-0.01 -3.5e-4,-0.002 -0.001,-0.005 -0.002,-0.008 0.004,-0.003 0.004,-0.002 0.008,-0.006 0.0446,-0.0375 0.11233,-0.0853 0.13694,-0.0997 0.0594,-0.0364 0.11742,-0.0547 0.17725,-0.0548 z m -0.63252,0.82062 c 0.0513,0.0879 0.10017,0.1775 0.1757,0.24185 6.5e-4,6.9e-4 0.001,5.5e-4 0.002,0.002 0.11151,0.0876 0.24496,0.1328 0.39429,0.1328 h 0.0724 c -0.0176,0.0396 -0.0334,0.0787 -0.0548,0.11731 -1e-5,6.7e-4 -1e-5,10e-4 0,0.002 -0.0315,0.0594 -0.0695,0.11323 -0.1111,0.16174 -0.0399,0.0428 -0.0836,0.0797 -0.13281,0.10956 -0.0477,0.0254 -0.0993,0.0372 -0.15813,0.0372 -0.0498,0 -0.0852,-0.0109 -0.11162,-0.0315 -0.0315,-0.0284 -0.0565,-0.0612 -0.076,-0.10335 h 0.002 c -0.0199,-0.0464 -0.0344,-0.0976 -0.0413,-0.15606 -0.005,-0.0458 -0.0232,-0.0876 -0.031,-0.11938 -0.004,-0.0159 -0.005,-0.0277 -0.004,-0.031 0.026,-0.0148 0.0434,-0.0427 0.0491,-0.0667 0.006,-0.0251 0.006,-0.0464 0.004,-0.0682 -0.004,-0.0436 -0.0118,-0.0864 -0.008,-0.10748 0.008,-0.0389 0.0195,-0.0802 0.0294,-0.12041 z"
         id="path14" />
    </g>
  </g>
</svg>
