<?xml version="1.0" encoding="UTF-8" standalone="no"?>
<svg
   width="87.815804"
   height="27.824499"
   viewBox="0 0 87.815804 27.824499"
   fill="none"
   version="1.1"
   id="svg4"
   xmlns="http://www.w3.org/2000/svg"
   xmlns:svg="http://www.w3.org/2000/svg">
  <defs
     id="defs4" />
  <path
     fill-rule="evenodd"
     clip-rule="evenodd"
     d="M 9.1598,0 H 0.9306 C 0.4174,0 0,0.4168 0,0.9289 v 25.9668 c 0,0.5121 0.4174,0.9288 0.9306,0.9288 h 26.951 V 18.6834 C 27.8816,8.3813 19.4831,0 9.1598,0"
     fill="#0063fb"
     id="path1" />
  <path
     fill-rule="evenodd"
     clip-rule="evenodd"
     d="M 86.8848,0 H 30.9043 c -0.5132,0 -0.9308,0.4168 -0.9308,0.9289 v 26.8954 h 56.9113 c 0.513,0 0.931,-0.4165 0.931,-0.9286 V 0.9289 C 87.8158,0.4168 87.3978,0 86.8848,0 Z"
     fill="#06befb"
     id="path2" />
  <path
     fill-rule="evenodd"
     clip-rule="evenodd"
     d="m 39.415,8.4872 h 7.5382 c 0.3276,0 0.5931,0.2649 0.5931,0.5918 v 1.8562 c 0,0.3269 -0.2655,0.5919 -0.5931,0.5919 h -4.8338 v 2.449 h 3.8487 c 0.3276,0 0.5931,0.2649 0.5931,0.5918 v 1.5803 c 0,0.3269 -0.2655,0.5919 -0.5931,0.5919 h -3.8487 v 2.0054 c 0,0.3269 -0.2655,0.5917 -0.593,0.5917 H 39.415 c -0.3275,0 -0.593,-0.2648 -0.593,-0.5917 V 9.079 c 0,-0.3269 0.2655,-0.5918 0.593,-0.5918 z m 11.4149,0 h 2.1114 c 0.3275,0 0.593,0.2649 0.593,0.5918 v 9.6665 c 0,0.3269 -0.2655,0.5919 -0.593,0.5919 h -2.1114 c -0.3275,0 -0.593,-0.265 -0.593,-0.5919 V 9.079 c 0,-0.3269 0.2655,-0.5918 0.593,-0.5918 z m 27.5445,0 h -2.1116 c -0.3273,0 -0.5928,0.2649 -0.5928,0.5918 v 4.74 L 72.3685,8.8407 C 72.222,8.6199 71.9743,8.4872 71.709,8.4872 h -1.622 c -0.3275,0 -0.593,0.2649 -0.593,0.5918 v 9.6665 c 0,0.3269 0.2655,0.5917 0.593,0.5917 h 2.1116 c 0.3275,0 0.5928,-0.2648 0.5928,-0.5917 v -4.6851 l 3.2293,4.92 c 0.1461,0.2227 0.3948,0.3568 0.6615,0.3568 h 1.6922 c 0.3275,0 0.593,-0.2648 0.593,-0.5917 V 9.079 c 0,-0.3269 -0.2655,-0.5918 -0.593,-0.5918 z m -14.8281,0 h 2.1116 c 0.3275,0 0.593,0.2649 0.593,0.5918 v 9.6665 c 0,0.3269 -0.2655,0.5917 -0.593,0.5917 h -1.6923 c -0.2666,0 -0.5153,-0.1341 -0.6614,-0.3568 l -3.2293,-4.92 v 4.6851 c 0,0.3269 -0.2655,0.5917 -0.5929,0.5917 h -2.1115 c -0.3275,0 -0.5931,-0.2648 -0.5931,-0.5917 V 9.079 c 0,-0.3269 0.2656,-0.5918 0.5931,-0.5918 h 1.622 c 0.2653,0 0.513,0.1327 0.6594,0.3535 l 3.3014,4.9783 v -4.74 c 0,-0.3269 0.2655,-0.5918 0.593,-0.5918 z"
     fill="#ffffff"
     id="path4" />
</svg>
