<?xml version="1.0" encoding="UTF-8" standalone="no"?>
<svg 
    xmlns:svg="http://www.w3.org/2000/svg"
   xmlns="http://www.w3.org/2000/svg"
 viewBox="0 0 100 34" width="100" height="34" role="img" aria-label="Folio" class="css-13o7eu2"><g stroke="#000" stroke-linecap="square" stroke-miterlimit="10" stroke-width="2"><path d="m19 9v24h-18v-28a4 4 0 0 1 4-4" fill="#fff"></path><path d="m1 19a4 4 0 0 1 4-4" fill="none"></path><path d="m27 9h-18v-4a4 4 0 0 0 -4-4h18a4 4 0 0 1 4 4z" fill="#bdb2f5"></path><path d="m27 23h-18v-4a4 4 0 0 0 -4-4h18a4 4 0 0 1 4 4z" fill="#fdc7bd"></path></g><path d="m41.95 27.2h5.25v-6.66h4.22v-4.48h-4.22v-3.19h5.97v-4.63h-11.22z"></path><path d="m69.32 7.48h5.25v19.72h-5.25z"></path><path d="m79.33 11a2.57 2.57 0 0 0 2.49-2.63 2.57 2.57 0 0 0 -2.49-2.63 2.57 2.57 0 0 0 -2.49 2.63 2.57 2.57 0 0 0 2.49 2.63z"></path><path d="m76.77 12.3h5.13v14.9h-5.13z"></path><path d="m60.45 12.15c-3.51 0-7.28 2.41-7.28 7.71 0 4.62 2.93 7.72 7.28 7.72s7.28-3.1 7.28-7.72c0-5.3-3.73-7.71-7.28-7.71zm0 4.26c1.59 0 2.5 1.26 2.5 3.45 0 1.3-.32 3.46-2.5 3.46s-2.45-2.16-2.45-3.46c0-2.19.86-3.45 2.45-3.45z"></path><path d="m91.09 12.15c-3.5 0-7.28 2.41-7.28 7.71 0 4.62 2.93 7.72 7.28 7.72s7.28-3.1 7.28-7.72c0-5.3-3.77-7.71-7.28-7.71zm0 4.26c1.59 0 2.5 1.26 2.5 3.45 0 1.3-.32 3.46-2.5 3.46s-2.5-2.16-2.5-3.46c0-2.19.91-3.45 2.5-3.45z"></path></svg>