<?xml version="1.0" encoding="UTF-8" standalone="no"?>
<!-- Created with Inkscape (http://www.inkscape.org/) -->

<svg
   width="17.461271mm"
   height="8.9525967mm"
   viewBox="0 0 17.461271 8.9525967"
   version="1.1"
   id="svg1"
   xmlns="http://www.w3.org/2000/svg"
   xmlns:svg="http://www.w3.org/2000/svg">
  <defs
     id="defs1" />
  <g
     id="layer1"
     transform="translate(-138.90638,-117.73958)">
    <path
       id="path78"
       style="color:#000000;-inkscape-font-specification:Satisfy;fill:#ffffff;stroke-linecap:round;stroke-linejoin:round;-inkscape-stroke:none;paint-order:stroke fill markers"
       d="m 141.86102,117.73958 c -0.0743,7.1e-4 -0.14537,0.0335 -0.21446,0.0724 -0.0691,0.0388 -0.13721,0.0867 -0.19327,0.12144 -0.15478,0.0982 -0.29648,0.22049 -0.42788,0.3669 a 0.050005,0.050005 0 0 0 -0.002,0 c -0.12687,0.14554 -0.24086,0.30292 -0.34158,0.47078 -0.0962,0.16284 -0.17536,0.31318 -0.23874,0.45113 -0.0411,0.0896 -0.0863,0.19681 -0.13436,0.32246 -0.0479,0.12165 -0.0973,0.25227 -0.14883,0.39223 -0.0515,0.13983 -0.10452,0.28685 -0.15968,0.44131 -0.0488,0.14282 -0.10042,0.28801 -0.15244,0.43409 -0.13883,0.0413 -0.26163,0.0824 -0.35967,0.12092 -0.10501,0.0362 -0.1708,0.0601 -0.20671,0.078 -0.0612,0.0253 -0.10717,0.046 -0.14056,0.0667 -0.05,0.0278 -0.0757,0.0849 -0.0801,0.14624 a 0.050005,0.050005 0 0 0 0,0.008 c 0.003,0.0297 0.0144,0.0593 0.0367,0.0801 0.0216,0.0202 0.0504,0.0302 0.0801,0.0351 0.0267,0.005 0.0551,0.006 0.0879,0.002 a 0.050005,0.050005 0 0 0 0.0119,-0.004 c 10e-4,-4.7e-4 0.0205,-0.006 0.047,-0.0114 0.0265,-0.005 0.0619,-0.0103 0.10749,-0.0176 0.0686,-0.011 0.16027,-0.0262 0.25166,-0.0393 -0.0297,0.0796 -0.0581,0.15867 -0.0858,0.23616 a 0.050005,0.050005 0 0 0 0,0.002 c -0.0328,0.0985 -0.067,0.18974 -0.0997,0.27337 -0.0772,0.20577 -0.13784,0.37139 -0.18551,0.4961 -0.0508,0.12682 -0.0971,0.23045 -0.13643,0.30902 -0.0395,0.0789 -0.0791,0.14475 -0.11731,0.19689 -0.0397,0.0541 -0.086,0.11435 -0.14056,0.17983 a 0.050005,0.050005 0 0 0 0.0408,0.0822 c 0.15199,-0.0111 0.27677,-0.026 0.37518,-0.045 0.0965,-0.0186 0.17697,-0.0378 0.24184,-0.0568 0.0685,-0.019 0.12626,-0.0401 0.17415,-0.0641 a 0.050005,0.050005 0 0 0 0.004,-0.002 c 0.0479,-0.0305 0.0894,-0.0761 0.12506,-0.13487 l 0.002,-0.002 c 0.0392,-0.0593 0.0742,-0.13636 0.10748,-0.22841 0.0376,-0.0941 0.0762,-0.21128 0.11318,-0.3514 v -0.002 c 0.0406,-0.13677 0.0851,-0.30149 0.1328,-0.4961 0.0412,-0.16808 0.0819,-0.32659 0.12299,-0.47852 0.0905,-0.009 0.18125,-0.0173 0.27182,-0.0238 0.10567,-0.007 0.20663,-0.0114 0.30076,-0.0114 0.10421,0 0.19587,0.007 0.27698,0.0212 0.0707,0.0118 0.13318,0.0285 0.19379,0.045 -0.0372,0.22696 -0.071,0.4414 -0.1018,0.63665 -0.0332,0.20685 -0.053,0.37457 -0.0605,0.50592 -0.008,0.13097 -0.006,0.25912 0.006,0.38292 0.007,0.10391 0.0186,0.20856 0.0372,0.31264 a 0.050005,0.050005 0 0 0 0.002,0.002 c 0.023,0.11116 0.058,0.20117 0.10749,0.2713 a 0.050005,0.050005 0 0 0 0.0548,0.0196 l 0.64027,-0.20929 a 0.050005,0.050005 0 0 0 0.0176,-0.0858 c -0.0661,-0.0595 -0.11328,-0.13934 -0.14418,-0.24236 -0.0322,-0.10747 -0.0539,-0.21096 -0.0646,-0.31419 a 0.050005,0.050005 0 0 0 0,-5.2e-4 0.050005,0.050005 0 0 0 0,-5.2e-4 0.050005,0.050005 0 0 0 0,-5.1e-4 0.050005,0.050005 0 0 0 0,-5.2e-4 c -0.0143,-0.11792 -0.0191,-0.24572 -0.0119,-0.38292 0.004,-0.0903 0.0128,-0.20475 0.0274,-0.34365 0.0174,-0.13603 0.0384,-0.28952 0.0625,-0.45889 0.17194,-0.0433 0.31362,-0.11855 0.43563,-0.22272 -0.0104,0.0675 -0.0238,0.13513 -0.0274,0.20515 -0.008,0.14019 0.004,0.26232 0.0351,0.36536 0.0306,0.0996 0.0707,0.18115 0.11937,0.24598 a 0.050005,0.050005 0 0 0 0.001,0.002 c 0.0519,0.0638 0.11076,0.11124 0.17777,0.14056 0.0636,0.0278 0.12562,0.0429 0.18552,0.0429 0.15485,0 0.31258,-0.053 0.47284,-0.15607 a 0.050005,0.050005 0 0 0 0.002,0 c 0.12636,-0.0824 0.25009,-0.20349 0.3731,-0.32814 a 0.050005,0.050005 0 0 0 0,0.001 c -0.004,0.0651 0.005,0.12967 0.0253,0.19378 a 0.050005,0.050005 0 0 0 0,0.002 c 0.0237,0.0633 0.0558,0.12246 0.0956,0.17415 0.0395,0.0514 0.0836,0.0943 0.13281,0.12713 a 0.050005,0.050005 0 0 0 0.002,0 c 0.0545,0.0335 0.11451,0.0527 0.1757,0.0527 0.0807,0 0.16481,-0.0286 0.25373,-0.0786 0.0919,-0.0459 0.1833,-0.10603 0.2775,-0.18139 v 0.002 c 0.0974,-0.0749 0.19218,-0.16323 0.28526,-0.25993 0.0308,-0.0308 0.0576,-0.061 0.0858,-0.092 2.8e-4,0.004 -3.4e-4,0.008 0,0.0119 0.0115,0.12219 0.0398,0.22579 0.0842,0.31058 a 0.050005,0.050005 0 0 0 0,0.002 c 0.0433,0.0787 0.0985,0.13918 0.16588,0.17777 0.0645,0.0403 0.12807,0.0625 0.1912,0.0625 a 0.050005,0.050005 0 0 0 0.004,0 c 0.11511,-0.008 0.22919,-0.0324 0.34365,-0.0744 a 0.050005,0.050005 0 0 0 0.002,0 c 0.10071,-0.0387 0.20494,-0.0987 0.31419,-0.17777 0.0818,-0.0621 0.15071,-0.16122 0.22066,-0.25787 0.003,0.0453 0.001,0.0974 0.01,0.13488 a 0.050005,0.050005 0 0 0 0,0.002 c 0.0189,0.0679 0.039,0.12405 0.0589,0.16795 0.0246,0.0533 0.0571,0.0971 0.0977,0.12867 a 0.050005,0.050005 0 0 0 0.002,0.002 c 0.0381,0.0254 0.0842,0.0425 0.13281,0.0512 0.0495,0.0124 0.0993,0.0155 0.15193,0.0114 0.055,-0.004 0.10862,-0.0131 0.1602,-0.0289 0.0511,-0.0157 0.0983,-0.0345 0.13901,-0.0589 a 0.050005,0.050005 0 0 0 0.002,-0.002 c 0.0612,-0.0408 0.13065,-0.1056 0.2129,-0.19533 0.0539,-0.0585 0.10607,-0.12454 0.15968,-0.18914 0.0107,0.12071 0.0232,0.24183 0.0512,0.35553 0.0563,0.21031 0.13764,0.39508 0.24392,0.55449 a 0.050005,0.050005 0 0 0 0,0.002 c 0.11014,0.15952 0.2429,0.28465 0.39635,0.37672 0.16283,0.0953 0.33911,0.10923 0.5178,0.13901 0.16238,0.0271 0.31464,-0.0342 0.44907,-0.0977 0.13513,-0.0638 0.29569,-0.15708 0.41238,-0.26561 0.013,-0.0113 0.12599,-0.11134 0.27337,-0.26976 0.13452,-0.14459 0.29088,-0.34101 0.41806,-0.54466 0.0395,0.056 0.0798,0.11191 0.13643,0.15399 0.0992,0.0744 0.22907,0.10956 0.38705,0.10956 0.13537,0 0.26111,-0.0273 0.37466,-0.0822 0.11513,-0.0503 0.21859,-0.12071 0.30695,-0.21291 0.0921,-0.0922 0.16952,-0.20072 0.2341,-0.32608 0.0668,-0.12969 0.0946,-0.26887 0.15038,-0.39429 0.0137,-0.0309 0.0505,-0.0507 0.11317,-0.0687 0.0627,-0.018 0.14379,-0.0308 0.21497,-0.0739 0.1225,-0.0742 0.23564,-0.15063 0.34003,-0.22893 0.0141,-0.0105 0.0227,-0.019 0.0351,-0.0289 -0.0153,0.0705 -0.0296,0.14205 -0.0429,0.20309 -0.0257,0.10644 -0.0528,0.21844 -0.0822,0.3359 -0.0294,0.11772 -0.0564,0.22919 -0.0822,0.33589 -0.0293,0.10263 -0.0539,0.19224 -0.0724,0.26976 -0.0217,0.076 -0.034,0.12343 -0.0388,0.15192 -0.005,0.0275 0.003,0.0641 0.0274,0.0842 0.025,0.0206 0.052,0.0253 0.0816,0.0253 0.0524,0 0.11176,-0.0139 0.17777,-0.0372 0.0656,-0.0231 0.12595,-0.051 0.18397,-0.0858 a 0.050005,0.050005 0 0 0 0.002,-0.002 c 0.0602,-0.0401 0.10461,-0.0826 0.12092,-0.13694 a 0.050005,0.050005 0 0 0 0,-5.1e-4 0.050005,0.050005 0 0 0 0,-0.003 c 0.0108,-0.0504 0.0242,-0.10363 0.0388,-0.15813 0.0148,-0.0593 0.0287,-0.12624 0.0434,-0.19948 v -0.002 c 0.0183,-0.0768 0.0386,-0.16055 0.0605,-0.25166 0.0211,-0.0915 0.0486,-0.1991 0.0801,-0.31833 0.0607,-0.0892 0.12065,-0.17566 0.18138,-0.25786 v -0.002 c 0.0649,-0.0864 0.12909,-0.16221 0.18966,-0.22634 0.063,-0.0627 0.12423,-0.11108 0.18138,-0.1447 a 0.050005,0.050005 0 0 0 0.002,-0.002 c 0.0564,-0.0365 0.10709,-0.0527 0.15451,-0.0527 0.0143,0 0.0213,0.002 0.0274,0.008 0.006,0.005 0.0135,0.0182 0.0191,0.0393 0.0121,0.0422 0.0153,0.10463 0.008,0.18552 -0.007,0.0775 -0.0218,0.16616 -0.047,0.26717 a 0.050005,0.050005 0 0 0 0,0.002 c -0.0218,0.0983 -0.0489,0.19883 -0.078,0.30075 -0.0256,0.0988 -0.0509,0.19405 -0.0765,0.28164 -0.0256,0.0842 -0.0449,0.15328 -0.0563,0.20671 -0.0193,0.0821 -0.0218,0.16208 -0.01,0.23823 0.0121,0.0728 0.0367,0.13955 0.078,0.1974 0.0415,0.0581 0.0968,0.10419 0.16227,0.13694 0.0706,0.0374 0.15287,0.0548 0.24391,0.0548 0.0914,0 0.1835,-0.0294 0.2775,-0.0842 0.0949,-0.0496 0.18972,-0.11269 0.28319,-0.1912 0.0935,-0.0823 0.1834,-0.17272 0.26924,-0.26975 a 0.050005,0.050005 0 0 0 0,-5.2e-4 0.050005,0.050005 0 0 0 0,-5.2e-4 0.050005,0.050005 0 0 0 0,-5.1e-4 0.050005,0.050005 0 0 0 0,-5.2e-4 c 0.085,-0.0998 0.16621,-0.1967 0.24029,-0.29301 0.074,-0.0962 0.13719,-0.18731 0.18965,-0.27336 v -0.002 c 0.0552,-0.0847 0.096,-0.15286 0.12299,-0.20671 0.0312,-0.0623 0.0506,-0.11601 0.0506,-0.1664 0,-0.0476 -0.013,-0.0919 -0.0527,-0.11679 -1.4e-4,-9e-5 1.5e-4,-0.002 0,-0.002 -0.0173,-0.0114 -0.0375,-0.0154 -0.0563,-0.0139 -0.0203,0.002 -0.0383,0.008 -0.0568,0.0176 -0.0424,0.0212 -0.0776,0.0582 -0.11317,0.10956 a 0.050005,0.050005 0 0 0 0,0.002 c -0.0466,0.0718 -0.11577,0.16816 -0.20722,0.28887 -0.0908,0.11618 -0.18912,0.23092 -0.29094,0.34365 -0.10128,0.11213 -0.20253,0.20645 -0.30282,0.28525 -0.095,0.0774 -0.17083,0.11162 -0.21653,0.11162 -0.0256,0 -0.038,-0.006 -0.045,-0.0119 -0.007,-0.006 -0.0135,-0.0128 -0.016,-0.0331 -0.003,-0.0508 0.007,-0.11404 0.0274,-0.18965 l -0.002,0.002 c 0.0407,-0.1258 0.0757,-0.24145 0.1018,-0.34572 l -0.002,0.002 c 0.0295,-0.10695 0.0538,-0.19949 0.0724,-0.2775 l 0.0605,-0.24029 v -0.002 c 0.0339,-0.12124 0.0491,-0.23392 0.0413,-0.33952 -0.004,-0.10439 -0.0243,-0.1944 -0.061,-0.27182 -0.0322,-0.0792 -0.0799,-0.1452 -0.14262,-0.1912 -0.0633,-0.0464 -0.13714,-0.0703 -0.21653,-0.0703 -0.0918,0 -0.18091,0.021 -0.26768,0.0605 -0.0849,0.0348 -0.16567,0.081 -0.24236,0.13849 -0.0721,0.0569 -0.1403,0.12188 -0.20464,0.19379 0.008,-0.0263 0.0152,-0.0544 0.0232,-0.0786 0.0145,-0.047 0.0275,-0.0829 0.0372,-0.10542 a 0.050005,0.050005 0 0 0 -0.0139,-0.0584 c -0.0277,-0.023 -0.0613,-0.04 -0.0977,-0.0491 -0.0268,-0.0109 -0.0538,-0.0192 -0.0816,-0.0233 -0.0319,-0.004 -0.063,-0.006 -0.0941,-0.006 a 0.050005,0.050005 0 0 0 -0.006,0 c -0.0366,0.004 -0.0717,0.0127 -0.10542,0.0253 -0.0317,0.008 -0.063,0.0196 -0.094,0.0351 -0.0305,0.0134 -0.0598,0.0323 -0.0879,0.0563 a 0.050005,0.050005 0 0 0 -0.0155,0.0258 c -0.0306,0.1162 -0.0568,0.21935 -0.0822,0.31988 -0.0197,0.017 -0.0355,0.0319 -0.0584,0.0491 -0.0722,0.0542 -0.15319,0.10782 -0.2403,0.16226 -0.0831,0.0505 -0.16952,0.1013 -0.25993,0.14831 -0.064,0.0333 -0.12344,0.0578 -0.18345,0.0837 6.6e-4,-0.007 0.001,-0.0117 0.002,-0.0191 0.004,-0.0449 0.006,-0.0836 0.006,-0.11524 0,-0.14891 -0.0241,-0.27733 -0.076,-0.38499 -0.0499,-0.10756 -0.11244,-0.19649 -0.18759,-0.26768 -0.0697,-0.0697 -0.14294,-0.12223 -0.22272,-0.15813 -0.0689,-0.0326 -0.12702,-0.0509 -0.18139,-0.0568 l -0.006,-10e-4 c -0.002,-1.6e-4 -0.004,-0.002 -0.006,-0.002 -0.005,-0.002 -0.0101,-0.004 -0.0155,-0.006 -0.0173,-0.009 -0.0336,-0.01 -0.0491,-0.01 -0.0707,0 -0.14285,0.0101 -0.21652,0.0295 -0.0734,0.0157 -0.14352,0.0412 -0.20929,0.076 v -0.002 c -0.0637,0.0318 -0.12021,0.0732 -0.17156,0.12454 a 0.050005,0.050005 0 0 0 -0.002,0.002 c -0.0486,0.0527 -0.0854,0.11541 -0.10956,0.18397 -0.06,0.0724 -0.1159,0.1485 -0.16226,0.23409 a 0.050005,0.050005 0 0 0 0,0.002 c -0.0451,0.0902 -0.083,0.18079 -0.11317,0.2713 -0.0301,0.0904 -0.0531,0.17844 -0.0682,0.26562 -0.0187,0.0864 -0.0294,0.16651 -0.0294,0.2403 0,0.10106 0.006,0.20921 0.0176,0.32452 0.001,0.0164 0.004,0.0273 0.006,0.0388 -0.22073,0.32067 -0.39073,0.53107 -0.70125,0.7891 -0.0885,0.0778 -0.18716,0.14419 -0.29714,0.19741 -0.10728,0.0519 -0.22011,0.078 -0.34158,0.078 -0.0726,0 -0.1458,-0.0189 -0.22066,-0.0563 -0.0718,-0.0359 -0.1393,-0.0958 -0.20154,-0.1819 -0.0582,-0.0856 -0.10641,-0.19669 -0.14211,-0.3359 -0.0317,-0.13744 -0.0444,-0.30684 -0.0372,-0.50953 0.0182,-0.45155 0.0823,-0.8801 0.1912,-1.28364 v -0.002 c 0.11303,-0.40429 0.25092,-0.75766 0.41031,-1.05834 0.16351,-0.30521 0.33757,-0.5457 0.52348,-0.72088 0.18563,-0.17492 0.3563,-0.2558 0.5116,-0.2558 0.0749,0 0.13865,0.0276 0.20102,0.0899 0.0565,0.0565 0.087,0.15035 0.0801,0.293 -0.0109,0.15176 -0.032,0.28898 -0.0641,0.41032 -0.0282,0.10594 -0.0703,0.20706 -0.12712,0.30644 a 0.050005,0.050005 0 0 0 -0.002,0 c -0.0504,0.0907 -0.11627,0.15137 -0.20516,0.18758 a 0.050005,0.050005 0 0 0 -0.0295,0.0646 c 0.0343,0.0877 0.0717,0.15632 0.11369,0.20671 a 0.050005,0.050005 0 0 0 0.002,0.002 c 0.0423,0.0462 0.0825,0.0821 0.12454,0.10748 0.0465,0.0296 0.0981,0.0483 0.15038,0.0527 a 0.050005,0.050005 0 0 0 0.004,0 c 0.10114,0 0.19501,-0.0301 0.27337,-0.0879 0.0796,-0.0597 0.14453,-0.13668 0.19534,-0.23047 0.0537,-0.0959 0.0943,-0.20304 0.12092,-0.3204 v -0.002 c 0.03,-0.11661 0.0473,-0.2376 0.0548,-0.36122 0.004,-0.1324 -0.007,-0.26402 -0.0331,-0.39274 -0.0269,-0.13057 -0.0748,-0.24858 -0.1447,-0.35346 -0.0665,-0.10559 -0.15711,-0.18931 -0.26923,-0.25167 -0.11208,-0.068 -0.24852,-0.1018 -0.40618,-0.1018 -0.25394,0 -0.49015,0.0598 -0.70331,0.17777 -0.21041,0.11292 -0.40197,0.26194 -0.57413,0.44907 -0.17207,0.18703 -0.32485,0.40487 -0.45888,0.6506 -0.12986,0.24116 -0.24164,0.49427 -0.33435,0.75758 -0.0923,0.25883 -0.1647,0.51864 -0.21653,0.77773 a 0.050005,0.050005 0 0 0 0,0.002 c -0.0359,0.19313 -0.0572,0.37057 -0.0703,0.5426 -0.028,0.0379 -0.0515,0.0737 -0.0879,0.11731 a 0.050005,0.050005 0 0 0 -0.002,0 c -0.0694,0.084 -0.13591,0.1617 -0.20153,0.23461 -0.0649,0.0685 -0.12464,0.12546 -0.18139,0.17156 v -0.002 c -0.0548,0.0411 -0.0964,0.0568 -0.11317,0.0568 -0.0354,0 -0.0556,-0.008 -0.0703,-0.0176 -0.0148,-0.0157 -0.0267,-0.0332 -0.0351,-0.0584 -0.01,-0.029 -0.0163,-0.0604 -0.0196,-0.094 1.5e-4,-0.0352 6.6e-4,-0.0677 0.004,-0.0956 v -0.004 c 0.0106,-0.053 0.0202,-0.0969 0.0274,-0.1328 0.007,-0.035 0.0122,-0.0656 0.016,-0.0915 l 0.002,-0.006 c 0.006,-0.0266 0.0124,-0.0518 0.016,-0.076 0.007,-0.0301 0.0138,-0.0623 0.0212,-0.0956 0.0368,-0.16911 0.0657,-0.30757 0.0879,-0.41445 0.0221,-0.10686 0.04,-0.19252 0.0512,-0.2558 0.0112,-0.0635 0.0176,-0.104 0.0176,-0.13436 0,-0.0283 0.002,-0.0442 -0.0119,-0.0724 a 0.050005,0.050005 0 0 0 -0.0217,-0.0217 c -0.0246,-0.0124 -0.0411,-0.0119 -0.0661,-0.0119 -0.022,0 -0.0504,0.002 -0.0879,0.006 -0.0146,0.002 -0.0374,0.007 -0.0548,0.01 0.0401,-0.082 0.0859,-0.1654 0.0682,-0.23254 -0.0171,-0.0808 -0.056,-0.14951 -0.1173,-0.19327 a 0.050005,0.050005 0 0 0 -0.002,0 c -0.0698,-0.0452 -0.15827,-0.0764 -0.262,-0.0956 a 0.050005,0.050005 0 0 0 -0.004,0 c -0.0995,-0.009 -0.21446,0.0229 -0.34779,0.0915 -0.13449,0.0692 -0.2675,0.1719 -0.40256,0.30696 -0.13568,0.13191 -0.26098,0.29185 -0.37672,0.47852 -0.0926,0.15438 -0.16312,0.32485 -0.21497,0.50591 -0.0585,0.0669 -0.11957,0.13484 -0.18759,0.20878 -0.0836,0.0909 -0.16676,0.17401 -0.25011,0.25011 -0.083,0.0758 -0.16157,0.13785 -0.23616,0.18759 a 0.050005,0.050005 0 0 0 -0.002,0.002 c -0.0691,0.0483 -0.12357,0.0682 -0.15813,0.0682 -0.0286,0 -0.0535,-0.0117 -0.0837,-0.045 -0.0235,-0.0259 -0.0406,-0.0774 -0.0372,-0.16227 0.004,-0.0598 0.013,-0.14095 0.0274,-0.24184 v -0.002 c 0.0179,-0.10009 0.0348,-0.20626 0.0527,-0.31678 0.1193,-0.18163 0.23232,-0.37074 0.33383,-0.56999 v -0.002 c 0.10692,-0.20659 0.20191,-0.41229 0.28318,-0.61547 0.0815,-0.20759 0.14492,-0.40811 0.19327,-0.60151 0.0522,-0.1939 0.0824,-0.37285 0.0899,-0.53899 0.007,-0.13374 0.008,-0.239 0,-0.32039 -0.007,-0.0787 -0.0216,-0.14039 -0.0486,-0.18759 -0.0216,-0.0475 -0.0556,-0.0849 -0.1018,-0.0977 -0.0349,-0.0126 -0.0728,-0.0191 -0.11317,-0.0191 -0.0356,0 -0.0722,0.007 -0.10955,0.0191 -0.0321,0.008 -0.0653,0.0183 -0.0997,0.0336 -0.038,0.0169 -0.0759,0.0424 -0.11524,0.0739 a 0.050005,0.050005 0 0 0 -0.0155,0.0238 c -0.0589,0.1952 -0.1123,0.38174 -0.1602,0.55863 -0.0478,0.17634 -0.0919,0.33266 -0.12867,0.4687 -0.0404,0.15782 -0.0786,0.3056 -0.11524,0.44132 -0.0222,0.0925 -0.0446,0.1899 -0.0667,0.293 -0.01,0.0458 -0.0204,0.094 -0.031,0.14056 -0.0236,-0.0624 -0.0545,-0.11859 -0.0941,-0.17001 -0.04,-0.0559 -0.0893,-0.0998 -0.14625,-0.13281 -0.0592,-0.0381 -0.12611,-0.0584 -0.1974,-0.0584 -0.15323,0 -0.30521,0.0462 -0.45475,0.13436 -0.14558,0.0843 -0.27753,0.20023 -0.39481,0.34778 -0.10934,0.1385 -0.19777,0.30484 -0.2713,0.49041 -0.12334,0.0779 -0.29432,0.0948 -0.46302,0.0899 0.0369,-0.23079 0.0732,-0.46555 0.11317,-0.70538 v -0.002 c 0.0477,-0.2677 0.0904,-0.51849 0.12712,-0.74983 0.0368,-0.23161 0.0678,-0.4303 0.0935,-0.59944 a 0.050005,0.050005 0 0 0 0,-5.2e-4 0.050005,0.050005 0 0 0 0,-5.2e-4 0.050005,0.050005 0 0 0 0,-5.1e-4 0.050005,0.050005 0 0 0 0,-5.2e-4 c 0.0258,-0.17328 0.041,-0.28907 0.045,-0.35553 0.0114,-0.19441 -0.0274,-0.34119 -0.12867,-0.42582 -0.0555,-0.0493 -0.12239,-0.0556 -0.17777,-0.0625 -0.0559,-0.007 -0.10005,-0.0143 -0.13281,-0.047 -0.0392,-0.0392 -0.0891,-0.0568 -0.13849,-0.0563 z m 0.0336,0.46716 c 0.0152,0 0.0181,0.002 0.0289,0.0176 a 0.050005,0.050005 0 0 0 0.006,0.006 c 0.006,0.006 0.0219,0.0387 0.0253,0.0956 0.003,0.0528 -0.003,0.13345 -0.0176,0.23823 -0.0177,0.12806 0.0242,0.27695 -0.0703,0.38085 -0.0425,0.0468 -0.0541,0.10662 -0.0625,0.1664 -0.008,0.0598 -0.0118,0.1222 -0.0253,0.18138 a 0.050005,0.050005 0 0 0 0,0.002 c -0.0257,0.12842 -0.0548,0.26965 -0.0879,0.42375 -0.0331,0.15432 -0.0687,0.31764 -0.10542,0.49041 -0.0302,0.1546 -0.0617,0.31365 -0.092,0.47439 -0.0839,-0.009 -0.17085,-0.017 -0.26768,-0.0233 h -0.002 c -0.11496,-0.0111 -0.23536,-0.0176 -0.36122,-0.0176 -0.0718,0 -0.1458,0.004 -0.22066,0.0119 -0.0445,0.005 -0.091,0.0115 -0.13694,0.0176 0.11465,-0.38857 0.22414,-0.72656 0.32246,-0.98082 0.10636,-0.27874 0.20125,-0.51288 0.28525,-0.7028 h -0.002 c 0.0576,-0.1259 0.12216,-0.23628 0.19327,-0.33228 0.0754,-0.10056 0.15103,-0.18275 0.2248,-0.24598 a 0.050005,0.050005 0 0 0 0.002,0 c 0.0749,-0.0678 0.14386,-0.12035 0.20877,-0.15451 0.0656,-0.0345 0.11932,-0.0486 0.15451,-0.0486 z m 1.71669,1.82004 c 0.0454,0 0.0704,0.0127 0.0956,0.0491 a 0.050005,0.050005 0 0 0 0.002,0.002 c 0.0284,0.0378 0.0491,0.0837 0.0625,0.14056 a 0.050005,0.050005 0 0 0 0.002,0.004 c 0.0172,0.0552 0.0276,0.10966 0.031,0.16433 a 0.050005,0.050005 0 0 0 0,0.002 c 0.004,0.0548 0.004,0.0921 0.004,0.11111 0,0.0494 0.008,0.092 0.031,0.12712 a 0.050005,0.050005 0 0 0 0.002,0.004 c 0.0169,0.0211 0.0454,0.0331 0.0703,0.0331 0.007,0 0.0131,-0.005 0.0196,-0.006 -0.01,0.0411 -0.019,0.083 -0.0274,0.12299 a 0.050005,0.050005 0 0 0 0,0.004 c -0.0103,0.065 -0.0237,0.13016 -0.0372,0.19534 -0.0389,0.0492 -0.0878,0.10834 -0.15038,0.18138 a 0.050005,0.050005 0 0 0 -0.002,0.002 c -0.061,0.0754 -0.12891,0.14854 -0.20464,0.22066 -0.0712,0.0712 -0.14522,0.13258 -0.22272,0.1819 a 0.050005,0.050005 0 0 0 -0.002,0 c -0.0716,0.0478 -0.13224,0.0682 -0.18552,0.0682 -0.0736,0 -0.12378,-0.0278 -0.16795,-0.094 -0.0411,-0.0616 -0.066,-0.17808 -0.0589,-0.34933 0.007,-0.10402 0.0361,-0.22337 0.0863,-0.35967 0.0503,-0.13646 0.11187,-0.26424 0.18707,-0.38241 0.0753,-0.12198 0.15572,-0.22384 0.2403,-0.30489 0.0825,-0.0825 0.15766,-0.1173 0.22479,-0.1173 z m 2.75591,0.0295 c 0.004,0.007 0.01,0.0141 0.0119,0.031 a 0.050005,0.050005 0 0 0 0,0.002 c 0.002,0.0115 6.3e-4,0.0388 -0.006,0.0765 a 0.050005,0.050005 0 0 0 0,0.004 c -0.003,0.0262 -0.017,0.0692 -0.045,0.12506 a 0.050005,0.050005 0 0 0 0.0568,0.0724 c 0.0274,-0.007 0.0547,-0.012 0.0822,-0.0155 0.0316,-0.004 0.0581,-0.0105 0.0816,-0.0196 6.8e-4,-2.3e-4 0.001,2.2e-4 0.002,0 -9.2e-4,0.007 -5.9e-4,0.007 -0.002,0.0155 a 0.050005,0.050005 0 0 0 0,0.004 c -0.007,0.0568 -0.019,0.12947 -0.0372,0.22066 -0.0182,0.0909 -0.0406,0.18687 -0.0661,0.28525 -0.0257,0.0993 -0.0482,0.1857 -0.0667,0.25942 a 0.050005,0.050005 0 0 0 0,0.002 c -4e-5,1.7e-4 -0.013,0.03 -0.0408,0.0682 a 0.050005,0.050005 0 0 0 -0.002,0.002 c -0.0235,0.0369 -0.0571,0.0788 -0.0997,0.12505 a 0.050005,0.050005 0 0 0 0,0.002 c -0.0381,0.045 -0.0835,0.0884 -0.13643,0.13074 a 0.050005,0.050005 0 0 0 -0.002,0.002 c -0.0489,0.0419 -0.0988,0.0758 -0.15038,0.10336 -0.0451,0.0225 -0.0874,0.0357 -0.13074,0.0393 -6e-4,0 -10e-4,0 -0.002,0 -0.0376,-4e-4 -0.0695,-0.0147 -0.1018,-0.047 -0.005,-0.005 -0.0221,-0.0422 -0.0289,-0.10749 -0.007,-0.0685 -0.005,-0.14799 0.006,-0.23978 v -0.002 c 0.0143,-0.0922 0.038,-0.19116 0.0703,-0.29507 0.032,-0.10671 0.074,-0.20504 0.12712,-0.29714 a 0.050005,0.050005 0 0 0 0,-5.2e-4 0.050005,0.050005 0 0 0 0,-5.1e-4 0.050005,0.050005 0 0 0 0,-5.2e-4 c 0.13093,-0.22913 0.24553,-0.38398 0.3359,-0.46095 0.0736,-0.0631 0.1303,-0.0849 0.14469,-0.0842 z m 4.92166,0.0408 c 0.0285,0 0.0479,0.0106 0.0703,0.0413 a 0.050005,0.050005 0 0 0 0.004,0.004 c 0.0267,0.0296 0.0493,0.0719 0.0661,0.12919 a 0.050005,0.050005 0 0 0 0,0.004 c 0.0203,0.054 0.0344,0.1156 0.0413,0.18552 0.007,0.0703 0.007,0.13886 0,0.20516 a 0.050005,0.050005 0 0 0 0,0.006 c 0,0.0232 -0.004,0.0524 -0.0139,0.0899 a 0.050005,0.050005 0 0 0 -0.002,0.004 c -0.006,0.0279 -0.0135,0.0613 -0.0212,0.0956 -0.004,7.6e-4 -0.008,0.001 -0.0119,0.002 h -0.0548 c -0.10908,0 -0.19219,-0.017 -0.24805,-0.045 -0.0551,-0.0329 -0.0929,-0.0692 -0.11678,-0.11111 -0.0259,-0.0452 -0.0424,-0.0958 -0.0491,-0.15244 -0.007,-0.0647 -0.01,-0.12541 -0.01,-0.1819 0,0.004 0.009,-0.0293 0.0176,-0.0548 0.005,-0.0127 0.01,-0.0206 0.01,-0.0429 1e-5,-0.003 -0.002,-0.006 -0.002,-0.01 -3.5e-4,-0.002 -10e-4,-0.005 -0.002,-0.008 0.004,-0.003 0.004,-0.002 0.008,-0.006 0.0446,-0.0375 0.11233,-0.0853 0.13694,-0.0997 0.0596,-0.0365 0.11776,-0.0548 0.17777,-0.0548 z m -0.63252,0.82062 c 0.0513,0.0879 0.10017,0.1775 0.1757,0.24185 a 0.050005,0.050005 0 0 0 0.002,0.002 c 0.11151,0.0876 0.24496,0.13281 0.39429,0.13281 h 0.0724 c -0.0176,0.0396 -0.0334,0.0787 -0.0548,0.1173 a 0.050005,0.050005 0 0 0 0,0.002 c -0.0315,0.0594 -0.0695,0.11324 -0.1111,0.16175 -0.0399,0.0428 -0.0836,0.0797 -0.13281,0.10955 -0.0477,0.0254 -0.0993,0.0372 -0.15813,0.0372 -0.0498,0 -0.0852,-0.0109 -0.11162,-0.0315 -0.0315,-0.0284 -0.0565,-0.0612 -0.076,-0.10335 h 0.002 c -0.0199,-0.0464 -0.0344,-0.0976 -0.0413,-0.15606 -0.005,-0.0458 -0.0232,-0.0876 -0.031,-0.11938 -0.004,-0.0159 -0.005,-0.0277 -0.004,-0.031 5.2e-4,-0.003 -0.005,0.003 -0.004,0.002 0.0281,-0.0141 0.0467,-0.0436 0.0527,-0.0687 0.006,-0.0251 0.006,-0.0464 0.004,-0.0682 -0.004,-0.0436 -0.012,-0.0864 -0.008,-0.10748 0.008,-0.0391 0.0194,-0.0806 0.0294,-0.12093 z" />
    <path
       id="path79"
       style="color:#000000;-inkscape-font-specification:Satisfy;fill:#ffffff;stroke-linecap:round;stroke-linejoin:round;-inkscape-stroke:none;paint-order:stroke fill markers"
       d="m 146.48882,122.82403 c -0.0742,0.002 -0.1416,0.0169 -0.19947,0.047 -0.0573,0.0298 -0.10745,0.0729 -0.15038,0.12712 a 0.02911871,0.02911871 0 0 0 0,0.002 c -0.0404,0.0539 -0.0763,0.11858 -0.10697,0.19534 -0.0306,0.0743 -0.0563,0.15701 -0.0801,0.25011 -0.015,0.0558 -0.0299,0.11407 -0.045,0.17415 a 0.02911871,0.02911871 0 0 0 0,0.001 c -0.0108,0.0504 -0.0222,0.1 -0.0315,0.15038 -0.0226,-0.004 -0.0466,-0.006 -0.0646,-0.0114 -0.0239,-0.008 -0.0399,-0.0144 -0.0506,-0.0196 -0.0112,-0.007 -0.0223,-0.0135 -0.0388,-0.0119 -0.0164,0.002 -0.0308,0.0163 -0.0351,0.0295 a 0.02911871,0.02911871 0 0 0 -0.002,0.006 c -0.002,0.0147 -0.004,0.0343 -0.006,0.0625 a 0.02911871,0.02911871 0 0 0 0.004,0.0196 c 0.0149,0.0199 0.0346,0.0382 0.0563,0.0527 0.0205,0.0137 0.0416,0.0238 0.0625,0.0331 a 0.02911871,0.02911871 0 0 0 0,0.002 c 0.0144,0.006 0.0297,0.0118 0.045,0.0176 -0.0155,0.0998 -0.0289,0.19454 -0.0408,0.28164 -0.0128,0.0939 -0.0246,0.17117 -0.0351,0.23047 -0.0128,0.0746 -0.0279,0.15441 -0.045,0.23978 -0.0171,0.0832 -0.0335,0.16547 -0.0527,0.2465 -0.0171,0.079 -0.0357,0.15392 -0.0527,0.22427 -0.006,0.0287 -0.01,0.049 -0.0155,0.0744 -0.009,-0.0374 -0.0199,-0.0815 -0.0295,-0.13849 v -0.002 c -0.008,-0.0635 -0.0169,-0.13313 -0.0253,-0.20929 -0.008,-0.0767 -0.0174,-0.15715 -0.0238,-0.24029 -0.006,-0.0854 -0.0112,-0.16852 -0.0155,-0.2496 -0.004,-0.0811 -0.008,-0.15797 -0.01,-0.23048 -0.002,-0.0725 -0.002,-0.13654 -0.002,-0.18965 0,-0.0818 -0.004,-0.16902 -0.008,-0.26355 -0.004,-0.0965 -0.009,-0.18942 -0.0155,-0.27957 -0.006,-0.0895 -0.0132,-0.17106 -0.0217,-0.24391 v -0.002 c -0.006,-0.0713 -0.0114,-0.12634 -0.0134,-0.16382 a 0.02911871,0.02911871 0 0 0 0,-5.1e-4 0.02911871,0.02911871 0 0 0 0,-5.2e-4 0.02911871,0.02911871 0 0 0 0,-5.2e-4 0.02911871,0.02911871 0 0 0 0,-5.1e-4 c -0.005,-0.0625 -0.024,-0.11087 -0.0646,-0.13695 -0.042,-0.0291 -0.0981,-0.0208 -0.17002,0.006 -0.0169,0.005 -0.0323,0.0119 -0.0486,0.0212 -0.014,0.007 -0.0294,0.0143 -0.047,0.0253 -0.0179,0.009 -0.0328,0.0202 -0.0486,0.0315 a 0.02911871,0.02911871 0 0 0 -0.0119,0.0176 c -0.0813,0.35094 -0.14279,0.61364 -0.18345,0.7891 -0.0235,0.10258 -0.0454,0.19245 -0.0646,0.26924 -0.015,0.0598 -0.0334,0.13156 -0.0548,0.21497 -0.0192,0.0833 -0.0406,0.17162 -0.0641,0.26562 h 0.002 c -0.0235,0.092 -0.0482,0.18686 -0.0739,0.28525 -0.0236,0.0966 -0.0453,0.19291 -0.0646,0.28526 -0.0193,0.0902 -0.0357,0.17267 -0.0486,0.24804 -0.0149,0.077 -0.0236,0.14228 -0.0258,0.19534 -0.004,0.0789 -7.2e-4,0.14049 0.0139,0.18707 0.0137,0.0434 0.0306,0.0776 0.0548,0.1018 0.0226,0.0226 0.0501,0.0361 0.0801,0.0393 0.0248,0.005 0.0466,0.008 0.0662,0.008 0.0177,0 0.0378,-0.003 0.0605,-0.008 0.0175,-0.004 0.0416,-0.0113 0.0687,-0.0196 0.0306,-0.007 0.0636,-0.0195 0.10129,-0.0372 a 0.02911871,0.02911871 0 0 0 0.0155,-0.0351 c -0.0141,-0.0442 -0.0248,-0.097 -0.031,-0.15658 v -0.002 c -0.004,-0.0589 -0.008,-0.11534 -0.01,-0.17001 -0.002,-0.0636 -0.002,-0.12962 0,-0.19534 0.002,-0.0583 0.009,-0.13013 0.0217,-0.21497 0.0127,-0.0871 0.028,-0.17987 0.0429,-0.27751 v -0.002 c 0.017,-0.0977 0.0357,-0.19735 0.0548,-0.29714 0.0213,-0.10223 0.0393,-0.19921 0.0563,-0.29093 v -0.002 c 0.0191,-0.0911 0.0358,-0.17232 0.0506,-0.24237 0.0171,-0.0725 0.0329,-0.12805 0.0434,-0.16588 0.0108,-0.0466 0.0197,-0.0913 0.0289,-0.13642 0.004,0.0299 0.008,0.0504 0.0119,0.0837 0.0107,0.10029 0.0224,0.21543 0.0331,0.34365 0.006,0.0979 0.01,0.20176 0.0119,0.31264 0.002,0.11145 0.005,0.22437 0.01,0.33796 0.006,0.11147 0.0147,0.22243 0.0233,0.33176 0.0108,0.1079 0.0255,0.20759 0.045,0.30076 a 0.02911871,0.02911871 0 0 0 0,0.002 c 0.0193,0.0857 0.0376,0.16382 0.0548,0.23668 a 0.02911871,0.02911871 0 0 0 0,0.002 c 0.0196,0.074 0.0415,0.13612 0.0661,0.18758 0.0254,0.0507 0.0557,0.0874 0.0961,0.10181 0.0387,0.0139 0.0838,0.009 0.13074,-0.01 0.0171,-0.007 0.0342,-0.0177 0.0506,-0.0295 0.0156,-0.0104 0.0287,-0.0222 0.0429,-0.0388 0.0157,-0.0157 0.0274,-0.0348 0.0372,-0.0568 a 0.02911871,0.02911871 0 0 0 0.002,-0.004 c 0.0235,-0.092 0.0453,-0.1801 0.0667,-0.26355 0.0214,-0.0836 0.0413,-0.15827 0.0563,-0.22273 0.0171,-0.0749 0.0321,-0.14256 0.047,-0.2067 0.0151,-0.0669 0.0299,-0.14452 0.045,-0.23048 0.0172,-0.086 0.0335,-0.17525 0.0486,-0.26975 0.0171,-0.0964 0.034,-0.19443 0.0512,-0.29507 0.0163,-0.0979 0.0344,-0.19498 0.0527,-0.29094 0.0555,-0.0181 0.11179,-0.0422 0.17156,-0.078 0.0666,-0.0422 0.12828,-0.0943 0.18346,-0.15607 0.0554,-0.0642 0.10157,-0.13763 0.13901,-0.2191 0.0403,-0.0851 0.0617,-0.17924 0.0661,-0.28319 0.007,-0.13721 -0.0105,-0.23732 -0.0605,-0.30076 -0.045,-0.0607 -0.1096,-0.0956 -0.18346,-0.0956 z m 0.0134,0.29507 h 5.2e-4 c 0.004,1.7e-4 0.005,10e-4 0.006,0.002 8.2e-4,6.2e-4 0.004,0.002 0.006,0.008 a 0.02911871,0.02911871 0 0 0 0,0.004 c 0.005,0.0102 0.01,0.028 0.008,0.0548 -0.002,0.039 -0.0126,0.0836 -0.031,0.13281 a 0.02911871,0.02911871 0 0 0 0,0.002 c -0.0163,0.0489 -0.0393,0.0987 -0.0703,0.14831 -0.0305,0.0488 -0.0688,0.0954 -0.11163,0.14056 -3.7e-4,3.7e-4 -0.002,-3.8e-4 -0.002,0 -3.6e-4,3.8e-4 3.7e-4,0.002 0,0.002 -0.0239,0.0237 -0.0503,0.0417 -0.076,0.061 0.003,-0.0126 0.004,-0.0241 0.008,-0.0372 0.0255,-0.11887 0.0511,-0.21341 0.078,-0.28164 0.0294,-0.0693 0.0589,-0.12083 0.0842,-0.15399 0.0265,-0.0367 0.0491,-0.06 0.0625,-0.0667 a 0.02911871,0.02911871 0 0 0 0.002,0 c 0.0216,-0.0118 0.0372,-0.0154 0.0367,-0.0155 z m 1.66036,0.60926 c -0.0412,0 -0.0817,0.0198 -0.11937,0.0527 -0.0365,0.0319 -0.0686,0.0705 -0.0977,0.11524 -0.0291,0.0425 -0.0523,0.0857 -0.0703,0.13281 -0.0181,0.0476 -0.0267,0.0892 -0.0212,0.12506 0.005,0.0342 0.009,0.0581 0.0253,0.078 a 0.02911871,0.02911871 0 0 0 0.002,0.002 c 0.003,0.003 0.0113,0.01 0.0155,0.014 -0.0218,0.0199 -0.0438,0.0399 -0.076,0.0641 -0.042,0.0315 -0.0898,0.0639 -0.14056,0.0956 -0.048,0.0291 -0.0982,0.0571 -0.15038,0.0842 -0.0371,0.0193 -0.0727,0.0336 -0.10749,0.0486 3.4e-4,-0.004 0.002,-0.006 0.002,-0.01 0.002,-0.0262 0.002,-0.0478 0.002,-0.0662 0,-0.0867 -0.0127,-0.16208 -0.0429,-0.22479 -0.0291,-0.0627 -0.0653,-0.11464 -0.10903,-0.15607 -0.0402,-0.0402 -0.0833,-0.0711 -0.1292,-0.092 h -0.002 c -0.0418,-0.0196 -0.0782,-0.0326 -0.1111,-0.0351 -0.003,-10e-4 -0.007,-0.002 -0.01,-0.004 l -0.004,-0.002 c -0.008,-0.003 -0.017,-0.004 -0.0253,-0.004 -0.0412,0 -0.0822,0.006 -0.12506,0.0176 -0.0426,0.009 -0.0827,0.0227 -0.12092,0.0429 -0.0371,0.0185 -0.0719,0.0424 -0.1018,0.0724 a 0.02911871,0.02911871 0 0 0 0,0.002 c -0.0283,0.0307 -0.05,0.0655 -0.0641,0.10542 -0.0352,0.0424 -0.0669,0.0868 -0.0941,0.13695 a 0.02911871,0.02911871 0 0 0 0,0.002 c -0.0263,0.0525 -0.0486,0.10539 -0.0661,0.15813 -0.0175,0.0526 -0.0304,0.10323 -0.0393,0.15399 -0.0111,0.0508 -0.0176,0.0979 -0.0176,0.14108 0,0.0588 0.003,0.11993 0.01,0.18707 0.004,0.0692 0.02,0.1349 0.045,0.19378 0.0276,0.0599 0.0679,0.10916 0.12092,0.14832 0.0577,0.0433 0.13487,0.0646 0.22686,0.0646 0.0788,0 0.15034,-0.0171 0.21653,-0.0491 v 0.002 c 0.0677,-0.0293 0.12805,-0.0731 0.17983,-0.12713 0.0532,-0.0534 0.0996,-0.11661 0.13694,-0.18913 0.0352,-0.0682 0.0602,-0.14145 0.0816,-0.21911 0.0632,-0.0221 0.12733,-0.0523 0.19534,-0.0935 0.0617,-0.0374 0.11833,-0.0761 0.17208,-0.11524 -0.0262,0.0541 -0.0532,0.10837 -0.0822,0.16795 -0.0365,0.073 -0.0696,0.14069 -0.0997,0.20515 h 0.002 c -0.0322,0.0623 -0.0601,0.11486 -0.0816,0.1602 -0.0236,0.045 -0.0383,0.0744 -0.045,0.0879 -0.0146,0.0291 -0.0207,0.0566 -0.0139,0.0837 0.006,0.0234 0.0242,0.0435 0.047,0.0512 0.0212,0.009 0.0461,0.007 0.0682,-0.002 0.02,-0.008 0.0346,-0.0262 0.0491,-0.045 a 0.02911871,0.02911871 0 0 0 0.01,-0.008 c 5.7e-4,-8.5e-4 0.002,-0.001 0.002,-0.002 0.008,-0.011 0.0248,-0.0351 0.0527,-0.078 a 0.02911871,0.02911871 0 0 0 0,-5.2e-4 0.02911871,0.02911871 0 0 0 0,-5.1e-4 0.02911871,0.02911871 0 0 0 0,-5.2e-4 0.02911871,0.02911871 0 0 0 0,-5.2e-4 c 0.0254,-0.0445 0.0572,-0.0984 0.0956,-0.16019 a 0.02911871,0.02911871 0 0 0 0.002,0 c 0.0386,-0.0643 0.0781,-0.13234 0.12092,-0.20516 0.0451,-0.073 0.0864,-0.14219 0.12506,-0.20877 0.0407,-0.0663 0.0754,-0.1249 0.10542,-0.17415 0.0239,-0.0393 0.0365,-0.0581 0.047,-0.076 0.01,0.003 0.018,0.007 0.0289,0.0119 0.024,0.0107 0.0514,0.0155 0.0822,0.0155 h 0.0429 a 0.02911871,0.02911871 0 0 0 0.006,-0.002 c 0.01,-0.002 0.0161,-0.002 0.0155,-0.002 h 0.0155 a 0.02911871,0.02911871 0 0 0 0.01,-0.002 c 9.1e-4,-3e-4 0.008,-0.002 0.0196,-0.002 0.0117,0 0.0137,9.5e-4 0.0176,0.008 0.006,0.0103 0.008,0.0223 0.008,0.0372 0,0.0223 -0.009,0.0571 -0.031,0.0997 -0.021,0.0419 -0.0501,0.0944 -0.0863,0.15606 a 0.02911871,0.02911871 0 0 0 -0.002,0.002 c -0.0146,0.0292 -0.0297,0.0584 -0.0486,0.0899 a 0.02911871,0.02911871 0 0 0 -0.002,0 c -0.0173,0.0302 -0.0334,0.0633 -0.0506,0.0956 -0.0152,0.0305 -0.0298,0.0615 -0.0429,0.092 -0.0115,0.03 -0.0193,0.059 -0.0217,0.0879 a 0.02911871,0.02911871 0 0 0 0,0.002 c -0.002,0.0354 7.4e-4,0.0725 0.01,0.11317 a 0.02911871,0.02911871 0 0 0 0,0.002 c 0.0115,0.0392 0.0297,0.0767 0.0527,0.11111 a 0.02911871,0.02911871 0 0 0 0.002,0.002 c 0.026,0.033 0.0585,0.0612 0.0977,0.0842 0.042,0.0247 0.0931,0.0351 0.15245,0.0351 0.0593,0 0.12027,-0.0172 0.18138,-0.0512 0.0619,-0.0332 0.12272,-0.0741 0.1819,-0.12454 0.0609,-0.0522 0.11723,-0.10915 0.17157,-0.17002 0.0308,-0.0357 0.0569,-0.0695 0.0842,-0.10387 0.002,0.0397 0.003,0.0801 0.01,0.11731 a 0.02911871,0.02911871 0 0 0 0,0.002 c 0.0112,0.0561 0.0297,0.10679 0.0548,0.15244 a 0.02911871,0.02911871 0 0 0 0.002,0 c 0.0278,0.0441 0.0635,0.0815 0.10594,0.10749 0.0438,0.0268 0.0963,0.0388 0.15606,0.0388 0.0458,0 0.0907,-0.0119 0.13487,-0.0351 0.043,-0.0226 0.085,-0.0522 0.12506,-0.0879 0.04,-0.0356 0.0779,-0.0767 0.11317,-0.12299 0.0237,-0.031 0.0445,-0.0624 0.0661,-0.0935 0.0214,0.077 0.0465,0.15084 0.0899,0.20877 0.057,0.0736 0.14314,0.11162 0.25012,0.11162 0.0674,0 0.13185,-0.0199 0.18965,-0.0568 0.0565,-0.0362 0.10942,-0.0849 0.15813,-0.14469 0.0484,-0.0594 0.0914,-0.12468 0.13074,-0.19895 0.0351,-0.0663 0.0655,-0.13537 0.0935,-0.20516 0.008,0.002 0.016,0.002 0.0238,0.004 0.0161,0.002 0.0321,0.004 0.0465,0.004 0.0818,0 0.15904,-0.0108 0.23254,-0.0331 a 0.02911871,0.02911871 0 0 0 0.002,0 c 0.0437,-0.0142 0.0786,-0.0339 0.11731,-0.0512 -0.0102,0.0327 -0.0294,0.0598 -0.0372,0.094 -0.024,0.0985 -0.0321,0.18494 -0.0253,0.25993 0.007,0.0712 0.0212,0.13203 0.047,0.18139 a 0.02911871,0.02911871 0 0 0 0.002,0 c 0.0255,0.0464 0.0579,0.081 0.0977,0.10335 0.0369,0.0227 0.0732,0.0372 0.10955,0.0372 a 0.02911871,0.02911871 0 0 0 0.002,0 c 0.0671,-0.004 0.13442,-0.0205 0.20102,-0.045 0.0586,-0.0225 0.11983,-0.0552 0.18346,-0.10129 a 0.02911871,0.02911871 0 0 0 0,-5.1e-4 0.02911871,0.02911871 0 0 0 5.1e-4,-5.2e-4 0.02911871,0.02911871 0 0 0 -5.1e-4,-5.2e-4 0.02911871,0.02911871 0 0 0 0,-5.1e-4 c 0.0477,-0.0362 0.0884,-0.094 0.12919,-0.15038 0.002,0.0268 7.3e-4,0.058 0.006,0.0801 a 0.02911871,0.02911871 0 0 0 0,0.002 c 0.011,0.0395 0.0219,0.0699 0.0336,0.0956 0.0143,0.031 0.0326,0.0575 0.0563,0.076 a 0.02911871,0.02911871 0 0 0 0.002,0 c 0.0225,0.015 0.0475,0.0266 0.076,0.0315 0.0288,0.007 0.0592,0.008 0.0899,0.006 0.0321,-0.002 0.0641,-0.008 0.0941,-0.0176 0.0297,-0.009 0.0564,-0.0188 0.0801,-0.0331 a 0.02911871,0.02911871 0 0 0 0,-5.2e-4 0.02911871,0.02911871 0 0 0 0,-5.1e-4 0.02911871,0.02911871 0 0 0 0,-5.2e-4 0.02911871,0.02911871 0 0 0 0,-5.2e-4 c 0.0356,-0.0237 0.0771,-0.0609 0.12505,-0.11317 0.0393,-0.0427 0.0776,-0.0911 0.11679,-0.13901 0.007,0.0743 0.009,0.15119 0.045,0.20516 a 0.02911871,0.02911871 0 0 0 0.002,0.002 c 0.0548,0.0786 0.1448,0.12489 0.26562,0.14055 0.0517,0.007 0.10299,-1.6e-4 0.15038,-0.0191 0.0472,-0.016 0.0925,-0.0395 0.13281,-0.0708 0.0405,-0.0315 0.0761,-0.0687 0.10955,-0.1111 0.002,-0.002 0.004,-0.005 0.006,-0.008 -0.008,0.0388 -0.0177,0.0767 -0.0274,0.11731 -0.0279,0.10081 -0.0573,0.2131 -0.0894,0.33951 -0.03,0.10929 -0.0653,0.23932 -0.10387,0.38706 -0.0363,0.14735 -0.0774,0.31034 -0.12661,0.48989 a 0.02911871,0.02911871 0 0 0 0,0.0176 c 0.01,0.0263 0.0219,0.0478 0.0388,0.0646 0.0125,0.0144 0.0243,0.0284 0.0351,0.0393 a 0.02911871,0.02911871 0 0 0 0.002,0.002 c 0.0142,0.0118 0.0306,0.0216 0.047,0.031 a 0.02911871,0.02911871 0 0 0 0.002,0.002 c 0.0431,0.0191 0.0854,0.0237 0.12661,0.0134 0.0489,-0.0115 0.0822,-0.0558 0.094,-0.11524 0.0406,-0.21815 0.0769,-0.41095 0.1111,-0.57981 0.0364,-0.16906 0.0684,-0.31372 0.094,-0.43357 0.0299,-0.13677 0.056,-0.25666 0.0816,-0.36121 a 0.02911871,0.02911871 0 0 0 0.002,-0.002 c 0.0256,-0.12788 0.0504,-0.24223 0.078,-0.34417 0.0299,-0.1025 0.0587,-0.19248 0.0842,-0.2713 a 0.02911871,0.02911871 0 0 0 0,-5.2e-4 0.02911871,0.02911871 0 0 0 0,-5.1e-4 0.02911871,0.02911871 0 0 0 0,-5.2e-4 0.02911871,0.02911871 0 0 0 0,-5.2e-4 c 0.0256,-0.0811 0.047,-0.14781 0.0661,-0.20309 0.0196,-0.0566 0.0345,-0.10382 0.0413,-0.14262 a 0.02911871,0.02911871 0 0 0 0,-5.2e-4 0.02911871,0.02911871 0 0 0 0,-5.2e-4 0.02911871,0.02911871 0 0 0 0,-5.1e-4 0.02911871,0.02911871 0 0 0 0,-5.2e-4 c 0.0111,-0.0733 0.01,-0.12757 -0.01,-0.1695 -0.009,-0.0216 -0.0274,-0.04 -0.0491,-0.0512 -0.0226,-0.0116 -0.0486,-0.0189 -0.0801,-0.0212 -0.027,-0.002 -0.055,5.1e-4 -0.0816,0.008 -0.0241,0.005 -0.0499,0.0142 -0.0786,0.0274 -0.0281,0.0119 -0.0569,0.0305 -0.0858,0.0527 a 0.02911871,0.02911871 0 0 0 -0.004,0.0388 0.02911871,0.02911871 0 0 0 0.002,0.004 c 0.0297,0.0316 0.0407,0.0607 0.0372,0.0977 -0.004,0.0434 -0.0141,0.10477 -0.0289,0.18345 -0.0102,0.0382 -0.0264,0.0832 -0.0491,0.13281 -0.0209,0.0502 -0.0465,0.10191 -0.076,0.15451 -0.0274,0.0527 -0.0582,0.10533 -0.092,0.15813 -0.0336,0.0503 -0.068,0.0954 -0.10335,0.13488 a 0.02911871,0.02911871 0 0 0 0,0.002 c -0.0331,0.0393 -0.0656,0.0695 -0.0977,0.0935 -0.0312,0.0215 -0.0569,0.0294 -0.0765,0.0294 -0.0246,0 -0.0418,-0.005 -0.0548,-0.0139 -0.013,-0.009 -0.024,-0.0219 -0.031,-0.0429 -0.0146,-0.0457 -0.0131,-0.11512 0.006,-0.20877 a 0.02911871,0.02911871 0 0 0 0,-0.004 c 0.002,-0.016 0.0106,-0.0514 0.0274,-0.0997 0.017,-0.0511 0.0355,-0.10614 0.0568,-0.16589 0.0214,-0.06 0.0432,-0.11789 0.0625,-0.17363 0.0192,-0.0576 0.0319,-0.10508 0.0408,-0.14263 v -0.002 c 0.0172,-0.0698 0.0233,-0.12472 0.01,-0.16794 -0.006,-0.0243 -0.0213,-0.0445 -0.0429,-0.0584 -0.0216,-0.0139 -0.0485,-0.0227 -0.0801,-0.0274 a 0.02911871,0.02911871 0 0 0 -0.002,0 c -0.0253,-0.002 -0.0507,-0.002 -0.076,0 a 0.02911871,0.02911871 0 0 0 -0.002,0.002 c -0.0227,0.005 -0.0474,0.0104 -0.076,0.0191 -0.0297,0.007 -0.0601,0.0208 -0.092,0.0413 a 0.02911871,0.02911871 0 0 0 -0.008,0.0429 c 0.0244,0.0314 0.0327,0.0671 0.0212,0.11885 a 0.02911871,0.02911871 0 0 0 0,0.002 c -0.0104,0.0561 -0.0288,0.12462 -0.0543,0.20516 -0.007,0.0183 -0.0168,0.0457 -0.0295,0.0858 a 0.02911871,0.02911871 0 0 0 0,0.002 c -0.0108,0.0387 -0.0223,0.0835 -0.0351,0.13281 -0.007,0.0252 -0.0116,0.0517 -0.0176,0.078 -0.03,0.0382 -0.0614,0.0783 -0.0956,0.11937 -0.0404,0.0489 -0.0791,0.0945 -0.1173,0.13694 -0.0378,0.0399 -0.0724,0.0724 -0.10542,0.0992 v -0.002 c -0.0319,0.0239 -0.0569,0.0336 -0.0667,0.0336 -0.0196,0 -0.0301,-0.003 -0.0388,-0.008 -3.7e-4,-3.6e-4 3.5e-4,-0.002 0,-0.002 -0.009,-0.009 -0.0188,-0.0181 -0.0238,-0.0331 -0.006,-0.0165 -0.008,-0.0346 -0.01,-0.0532 v -0.002 c 6e-5,-0.0211 2.1e-4,-0.0399 0.002,-0.0568 v -0.002 c 0.006,-0.0311 0.0113,-0.0571 0.0155,-0.078 0.004,-0.0203 0.007,-0.0377 0.01,-0.0527 v -0.004 c 0.004,-0.0158 0.008,-0.0306 0.01,-0.045 v -0.001 c 0.004,-0.0169 0.01,-0.0339 0.0139,-0.0527 0.0214,-0.0985 0.0378,-0.18016 0.0506,-0.24236 0.0129,-0.0622 0.023,-0.11144 0.0295,-0.14831 0.006,-0.037 0.01,-0.0609 0.01,-0.0785 0,-0.0164 0.002,-0.0264 -0.006,-0.0429 a 0.02911871,0.02911871 0 0 0 -0.0134,-0.0114 c -0.0147,-0.007 -0.0248,-0.006 -0.0393,-0.006 -0.0126,0 -0.0288,-1.6e-4 -0.0506,0.002 -0.008,9.5e-4 -0.0209,0.004 -0.031,0.006 0.0231,-0.0474 0.049,-0.0954 0.0388,-0.13436 -0.01,-0.047 -0.0326,-0.0882 -0.0682,-0.11369 -0.0406,-0.0263 -0.092,-0.0431 -0.15245,-0.0543 a 0.02911871,0.02911871 0 0 0 -0.004,-0.002 c -0.058,-0.005 -0.12343,0.0149 -0.20102,0.0548 -0.0783,0.0403 -0.15544,0.10066 -0.2341,0.17932 -0.079,0.0768 -0.15326,0.1688 -0.22065,0.2775 -0.005,0.008 -0.005,0.0176 -0.01,0.0253 -0.0175,0.0118 -0.0335,0.0244 -0.0527,0.0351 -0.0366,0.0203 -0.0781,0.0382 -0.12351,0.0527 -0.0438,0.0118 -0.0915,0.0176 -0.14418,0.0176 -0.0474,0 -0.0821,-0.009 -0.11317,-0.0196 0.0274,-0.0938 0.0507,-0.18191 0.0661,-0.25735 0.0173,-0.0863 0.0274,-0.14643 0.0274,-0.18552 0,-0.029 -0.009,-0.0563 -0.0295,-0.0744 -0.0206,-0.0181 -0.0491,-0.0253 -0.0801,-0.0253 -0.0348,0 -0.0721,0.009 -0.1111,0.0253 -0.0382,0.0167 -0.0754,0.0418 -0.10956,0.076 -0.0331,0.0331 -0.0597,0.0751 -0.0801,0.12506 -0.0211,0.0515 -0.0289,0.11275 -0.0289,0.1819 0,0.0313 9.9e-4,0.0601 0.006,0.0858 0.004,0.0184 0.008,0.0387 0.0134,0.0584 -0.0125,0.0538 -0.0278,0.11698 -0.0506,0.18759 -0.0231,0.0694 -0.0507,0.13448 -0.0822,0.1974 a 0.02911871,0.02911871 0 0 0 0,0.002 c -0.0289,0.062 -0.0629,0.1136 -0.10128,0.15606 -0.0347,0.0405 -0.0697,0.0568 -0.10749,0.0568 -0.0243,0 -0.0421,-0.008 -0.0605,-0.0253 -0.0209,-0.0229 -0.041,-0.0508 -0.0568,-0.0842 v -0.002 c -0.0157,-0.0356 -0.0287,-0.0755 -0.0388,-0.1173 -0.008,-0.0413 -0.0157,-0.0813 -0.0217,-0.11886 0.001,-0.004 0.002,-0.007 0.006,-0.0119 a 0.02911871,0.02911871 0 0 0 0.004,-0.006 c 0.0665,-0.15018 0.1227,-0.28766 0.17001,-0.41238 0.0499,-0.12791 0.076,-0.22685 0.076,-0.3023 0,-0.0338 -0.0113,-0.0654 -0.0351,-0.0863 -0.0225,-0.0197 -0.0524,-0.031 -0.0837,-0.031 -0.07,0 -0.13155,0.0224 -0.17776,0.0661 -0.0423,0.0423 -0.0751,0.0986 -0.0997,0.16794 a 0.02911871,0.02911871 0 0 0 0,0.002 c -0.0222,0.0688 -0.0383,0.1468 -0.047,0.23616 a 0.02911871,0.02911871 0 0 0 0,0.002 c -0.006,0.0885 -0.01,0.18057 -0.01,0.27751 v 0.0408 c 0,0.01 8.6e-4,0.0215 0.002,0.0315 -0.0603,0.13777 -0.12122,0.23659 -0.18139,0.29094 -0.0613,0.0572 -0.11551,0.0822 -0.15813,0.0822 -0.0385,0 -0.0586,-0.009 -0.0744,-0.0315 -0.0153,-0.0214 -0.0274,-0.0653 -0.0274,-0.13075 0,-0.0526 0.008,-0.12088 0.0253,-0.20308 0.017,-0.083 0.0355,-0.16698 0.0568,-0.25219 0.0235,-0.0854 0.0469,-0.16359 0.0682,-0.23616 0.0215,-0.073 0.0362,-0.12844 0.045,-0.16588 0.007,-0.0279 0.008,-0.052 0.006,-0.0744 -10e-4,-0.0141 -0.006,-0.0295 -0.0176,-0.0388 -0.0124,-0.0102 -0.0276,-0.0146 -0.0429,-0.016 -0.0543,-0.005 -0.10877,0.004 -0.16381,0.0274 -0.0517,0.0202 -0.0883,0.042 -0.10956,0.0724 a 0.02911871,0.02911871 0 0 0 -0.002,0.004 c -0.0105,0.021 -0.0235,0.055 -0.0408,0.10904 -0.0175,0.0524 -0.0354,0.11431 -0.0527,0.18552 -0.0151,0.0712 -0.0284,0.14863 -0.0413,0.23254 -0.002,0.0107 -6e-5,0.0209 -0.002,0.0315 -0.0188,0.0262 -0.0371,0.0496 -0.061,0.0801 h 0.002 c -0.0383,0.0468 -0.0803,0.0951 -0.12505,0.14625 -0.0444,0.0486 -0.0901,0.0948 -0.13643,0.13694 -0.0438,0.0396 -0.0875,0.0725 -0.13074,0.0992 -0.0388,0.023 -0.0728,0.0336 -0.1018,0.0336 -0.0229,0 -0.0418,-0.001 -0.0527,-0.004 -0.0109,-0.003 -0.0134,-0.008 -0.0134,-0.008 -0.008,-0.0122 -0.0137,-0.0309 -0.0176,-0.0548 v -0.002 c -0.003,-0.0346 0.007,-0.0757 0.0351,-0.12506 0.0296,-0.0528 0.0585,-0.10024 0.0879,-0.14211 0.0496,-0.069 0.0918,-0.13302 0.1266,-0.19172 0.0363,-0.0612 0.0517,-0.12322 0.045,-0.18345 v -0.002 c -0.002,-0.0274 -0.009,-0.057 -0.0176,-0.0878 -0.007,-0.0332 -0.0191,-0.0645 -0.0351,-0.092 h 0.002 c -0.0168,-0.0312 -0.0389,-0.0562 -0.0661,-0.076 -0.0292,-0.0239 -0.066,-0.0351 -0.10748,-0.0351 -0.0313,0 -0.0566,0.002 -0.0765,0.008 -0.005,0.002 -0.0295,0.004 -0.0625,0.004 -0.0197,0 -0.0313,-0.002 -0.0367,-0.004 -0.001,-8.9e-4 -0.003,-0.001 -0.004,-0.002 0.0169,-0.0305 0.0337,-0.06 0.0408,-0.0956 0.009,-0.0449 0.0112,-0.0844 0.006,-0.1173 -0.005,-0.0443 -0.0223,-0.0881 -0.0491,-0.12868 -0.0293,-0.0479 -0.0822,-0.0724 -0.14831,-0.0724 z m 3.67213,0.4315 c 0.002,0.004 0.004,0.008 0.006,0.016 a 0.02911871,0.02911871 0 0 0 0,0.002 c 0.001,0.007 0.002,0.0211 -0.002,0.0429 a 0.02911871,0.02911871 0 0 0 -0.002,0.004 c -0.001,0.0153 -0.009,0.0398 -0.0253,0.0724 a 0.02911871,0.02911871 0 0 0 0.0331,0.0413 c 0.016,-0.004 0.0332,-0.006 0.0491,-0.008 0.018,-0.002 0.0328,-0.006 0.0465,-0.0114 7e-4,-2.3e-4 0.001,2.3e-4 0.002,0 -5.4e-4,0.004 -0.001,0.005 -0.002,0.01 -0.004,0.0331 -0.0106,0.0777 -0.0212,0.13074 -0.0106,0.0529 -0.0244,0.10653 -0.0393,0.16382 -0.015,0.0578 -0.028,0.10953 -0.0388,0.15244 -2e-5,9e-5 -0.008,0.019 -0.0238,0.0413 a 0.02911871,0.02911871 0 0 0 -0.001,0.001 c -0.0137,0.0216 -0.032,0.0455 -0.0568,0.0724 a 0.02911871,0.02911871 0 0 0 -0.002,0 c -0.0222,0.0262 -0.0472,0.0539 -0.078,0.0786 a 0.02911871,0.02911871 0 0 0 -0.002,0 c -0.0285,0.0244 -0.0578,0.0444 -0.0879,0.0605 -0.0257,0.0126 -0.0513,0.0192 -0.076,0.0212 -0.0223,0 -0.0397,-0.006 -0.0589,-0.0253 -0.003,-0.003 -0.0134,-0.0265 -0.0176,-0.0625 v -0.002 c -0.004,-0.0392 -0.002,-0.0861 0.004,-0.13849 v -0.002 c 0.008,-0.0535 0.0201,-0.11186 0.0388,-0.17208 0.0186,-0.0622 0.0455,-0.12001 0.0765,-0.17363 0.0762,-0.13342 0.14268,-0.22284 0.19534,-0.26769 0.0286,-0.0245 0.0527,-0.039 0.0682,-0.045 0.0124,-0.005 0.0133,-0.003 0.0155,-0.002 z m -4.79712,0.0217 c 0.0168,0 0.0278,0.005 0.0408,0.0233 a 0.02911871,0.02911871 0 0 0 0.002,0.002 c 0.0156,0.0173 0.0295,0.0432 0.0393,0.0765 a 0.02911871,0.02911871 0 0 0 0,0.002 c 0.0118,0.0315 0.0213,0.0663 0.0253,0.10697 0.004,0.0409 0.004,0.0808 0,0.11938 a 0.02911871,0.02911871 0 0 0 0,0.004 c 0,0.0135 -0.004,0.0309 -0.01,0.0527 a 0.02911871,0.02911871 0 0 0 0,0.002 c -0.003,0.0155 -0.008,0.0357 -0.0119,0.0548 l -0.0114,0.002 h -0.0295 c -0.0635,0 -0.11009,-0.009 -0.14263,-0.0253 -0.0315,-0.019 -0.0544,-0.0405 -0.0682,-0.0646 -0.0151,-0.0264 -0.0256,-0.0571 -0.0295,-0.0899 -0.004,-0.0376 -0.006,-0.0724 -0.006,-0.10541 0,-0.0163 0.001,-0.0305 0.006,-0.045 3e-5,-1e-4 0.002,9e-5 0.002,0 0.0294,-0.0365 0.0583,-0.0652 0.0899,-0.0837 0.0346,-0.0212 0.0683,-0.0315 0.10335,-0.0315 z m -0.36742,0.47852 c 0.0297,0.0508 0.0581,0.10335 0.1018,0.14056 a 0.02911871,0.02911871 0 0 0 0.002,0 c 0.0649,0.051 0.14148,0.078 0.22841,0.078 h 0.0408 c -0.0101,0.0228 -0.0187,0.0466 -0.031,0.0687 -0.018,0.0341 -0.0387,0.0656 -0.0625,0.0935 -0.0232,0.0251 -0.0492,0.047 -0.078,0.0646 -0.0278,0.0148 -0.0598,0.0232 -0.0941,0.0232 -0.0286,0 -0.0472,-0.008 -0.0625,-0.0196 -0.0184,-0.0165 -0.0331,-0.0359 -0.0444,-0.0605 -0.0116,-0.0271 -0.0198,-0.056 -0.0238,-0.0899 -0.004,-0.0375 -0.006,-0.0757 -0.006,-0.11317 0,-0.0364 0.003,-0.0741 0.0114,-0.11524 0.005,-0.0226 0.0118,-0.047 0.0176,-0.0703 z" />
    <g
       id="path80"
       transform="matrix(1,0,-0.21255656,1,103.18748,40.60889)">
      <path
         style="color:#000000;fill:#ffffff;stroke-linecap:round;stroke-linejoin:round;-inkscape-stroke:none;paint-order:stroke fill markers"
         d="m 68.894531,83.283203 c -0.08285,-5e-6 -0.152349,0.06949 -0.152344,0.152344 v 0.43164 c -5e-6,0.08285 0.06949,0.152349 0.152344,0.152344 h 0.433594 c 0.08285,5e-6 0.152349,-0.06949 0.152344,-0.152344 v -0.43164 c 5e-6,-0.08285 -0.06949,-0.152349 -0.152344,-0.152344 z m 0.04687,0.197266 h 0.339844 v 0.341797 h -0.339844 z"
         id="path1" />
      <path
         style="color:#000000;fill:#ba0c2f;stroke-linecap:round;stroke-linejoin:round;-inkscape-stroke:none;paint-order:stroke fill markers"
         d="m 68.894912,83.381744 h 0.433294 a 0.05291667,0.05291667 45 0 1 0.05292,0.05292 v 0.433294 a 0.05291667,0.05291667 135 0 1 -0.05292,0.05292 h -0.433294 a 0.05291667,0.05291667 45 0 1 -0.05292,-0.05292 v -0.433294 a 0.05291667,0.05291667 135 0 1 0.05292,-0.05292 z"
         id="path2" />
    </g>
    <g
       id="path81"
       transform="matrix(1,0,-0.21255656,1,103.18748,40.60889)">
      <path
         style="color:#000000;fill:#ffffff;stroke-linecap:round;stroke-linejoin:round;-inkscape-stroke:none;paint-order:stroke fill markers"
         d="m 69.791016,83.283203 c -0.08285,-5e-6 -0.152349,0.06949 -0.152344,0.152344 v 0.43164 c -5e-6,0.08285 0.06949,0.152349 0.152344,0.152344 h 0.96875 c 0.08285,5e-6 0.152349,-0.06949 0.152343,-0.152344 v -0.43164 c 6e-6,-0.08285 -0.06949,-0.152349 -0.152343,-0.152344 z m 0.04687,0.197266 h 0.875 v 0.341797 h -0.875 z"
         id="path5" />
      <path
         style="color:#000000;fill:#ba0c2f;stroke-linecap:round;stroke-linejoin:round;-inkscape-stroke:none;paint-order:stroke fill markers"
         d="m 69.791511,83.381744 h 0.967803 a 0.05291667,0.05291667 45 0 1 0.05292,0.05292 v 0.433294 a 0.05291667,0.05291667 135 0 1 -0.05292,0.05292 h -0.967803 a 0.05291667,0.05291667 45 0 1 -0.05292,-0.05292 v -0.433294 a 0.05291667,0.05291667 135 0 1 0.05292,-0.05292 z"
         id="path6" />
    </g>
    <g
       id="path82"
       transform="matrix(1,0,-0.21255656,1,103.18748,40.60889)">
      <path
         style="color:#000000;fill:#ffffff;stroke-linecap:round;stroke-linejoin:round;-inkscape-stroke:none;paint-order:stroke fill markers"
         d="m 68.894531,84.179687 c -0.08285,-5e-6 -0.152349,0.06949 -0.152344,0.152344 v 0.433594 c -5e-6,0.08285 0.06949,0.152349 0.152344,0.152344 h 0.433594 c 0.08285,5e-6 0.152349,-0.06949 0.152344,-0.152344 v -0.433594 c 5e-6,-0.08285 -0.06949,-0.152349 -0.152344,-0.152344 z m 0.04687,0.199219 h 0.339844 v 0.339844 h -0.339844 z"
         id="path9" />
      <path
         style="color:#000000;fill:#ba0c2f;stroke-linecap:round;stroke-linejoin:round;-inkscape-stroke:none;paint-order:stroke fill markers"
         d="m 68.894912,84.278847 h 0.433294 a 0.05291667,0.05291667 45 0 1 0.05292,0.05292 v 0.433294 a 0.05291667,0.05291667 135 0 1 -0.05292,0.05292 h -0.433294 a 0.05291667,0.05291667 45 0 1 -0.05292,-0.05292 v -0.433294 a 0.05291667,0.05291667 135 0 1 0.05292,-0.05292 z"
         id="path10" />
    </g>
    <g
       id="path83"
       transform="matrix(1,0,-0.21255656,1,103.18748,40.60889)">
      <path
         style="color:#000000;fill:#ffffff;stroke-linecap:round;stroke-linejoin:round;-inkscape-stroke:none;paint-order:stroke fill markers"
         d="m 69.791016,84.179687 c -0.08285,-5e-6 -0.152349,0.06949 -0.152344,0.152344 v 0.433594 c -5e-6,0.08285 0.06949,0.152349 0.152344,0.152344 h 0.96875 c 0.08285,5e-6 0.152349,-0.06949 0.152343,-0.152344 v -0.433594 c 6e-6,-0.08285 -0.06949,-0.152349 -0.152343,-0.152344 z m 0.04687,0.199219 h 0.875 v 0.339844 h -0.875 z"
         id="path7" />
      <path
         style="color:#000000;fill:#ba0c2f;stroke-linecap:round;stroke-linejoin:round;-inkscape-stroke:none;paint-order:stroke fill markers"
         d="m 69.791511,84.278847 h 0.967803 a 0.05291667,0.05291667 45 0 1 0.05292,0.05292 v 0.433294 a 0.05291667,0.05291667 135 0 1 -0.05292,0.05292 h -0.967803 a 0.05291667,0.05291667 45 0 1 -0.05292,-0.05292 v -0.433294 a 0.05291667,0.05291667 135 0 1 0.05292,-0.05292 z"
         id="path8" />
    </g>
    <g
       id="path84"
       transform="matrix(1,0,-0.21255656,1,103.18748,40.60889)">
      <path
         style="color:#000000;fill:#ffffff;stroke-linecap:round;-inkscape-stroke:none;paint-order:stroke fill markers"
         d="m 69.521484,83.283203 c -0.08285,0 -0.152343,0.0695 -0.152343,0.152344 v 0.476562 h -0.47461 c -0.08285,0 -0.152344,0.0695 -0.152344,0.152344 v 0.07227 c 0,0.08285 0.0695,0.152343 0.152344,0.152343 h 0.47461 v 0.476563 c 0,0.08285 0.0695,0.152344 0.152343,0.152344 h 0.07227 c 0.08285,0 0.152344,-0.0695 0.152344,-0.152344 v -0.476563 h 1.013672 c 0.08285,0 0.152343,-0.0695 0.152343,-0.152343 v -0.07227 c 0,-0.08285 -0.0695,-0.152344 -0.152343,-0.152344 h -1.013672 v -0.476562 c 0,-0.08285 -0.0695,-0.152344 -0.152344,-0.152344 z m 0.03711,0.683594 c 0.0075,0.07051 0.0623,0.125268 0.132812,0.132812 -0.07051,0.0075 -0.125268,0.0623 -0.132812,0.132813 -0.0075,-0.07051 -0.0623,-0.125268 -0.132813,-0.132813 0.07051,-0.0075 0.125268,-0.0623 0.132813,-0.132812 z"
         id="path3" />
      <path
         style="color:#000000;fill:#00205b;stroke-linecap:round;-inkscape-stroke:none;paint-order:stroke fill markers"
         d="m 69.469045,83.434756 v 0.523068 a 0.05291667,0.05291667 135 0 1 -0.05292,0.05292 h -0.521001 a 0.05291667,0.05291667 135 0 0 -0.05292,0.05292 v 0.07245 a 0.05291667,0.05291667 45 0 0 0.05292,0.05292 h 0.521001 a 0.05291667,0.05291667 45 0 1 0.05292,0.05292 v 0.523069 a 0.05291667,0.05291667 45 0 0 0.05292,0.05292 h 0.07245 a 0.05291667,0.05291667 135 0 0 0.05292,-0.05292 v -0.523069 a 0.05291667,0.05291667 135 0 1 0.05292,-0.05292 h 1.058952 a 0.05291667,0.05291667 135 0 0 0.05292,-0.05292 v -0.07245 a 0.05291667,0.05291667 45 0 0 -0.05292,-0.05292 h -1.058952 a 0.05291667,0.05291667 45 0 1 -0.05292,-0.05292 v -0.523068 a 0.05291667,0.05291667 45 0 0 -0.05292,-0.05292 h -0.07245 a 0.05291667,0.05291667 135 0 0 -0.05292,0.05292 z"
         id="path4" />
    </g>
  </g>
</svg>
