<?xml version="1.0" encoding="utf-8"?>
<!-- Generator: Adobe Illustrator 25.1.0, SVG Export Plug-In . SVG Version: 6.00 Build 0)  -->
<svg version="1.1" id="Layer_1" xmlns="http://www.w3.org/2000/svg" xmlns:xlink="http://www.w3.org/1999/xlink" x="0px" y="0px"
	 viewBox="0 0 805.4 290" style="enable-background:new 0 0 805.4 290;" xml:space="preserve">
<path d="M145.4,184.5c-35.3,0-64-15.6-64-34.9s28.6-34.9,63.9-34.9V97.5c10.9,0,21.4,1.5,30.4,4.1L145.5,132v17.5l30.2-30.8
	c20.1,5.9,33.7,17.5,33.7,30.8C209.4,168.8,180.8,184.5,145.4,184.5 M42.4,247.6h205.8V41.8H42.4V247.6z"/>
<g>
	<path d="M314.3,178.2c-3.7,0-7.2-0.5-10.2-1.3s-5.6-2.1-7.8-3.7c-2.1-1.6-3.8-3.6-5-6c-1.2-2.4-1.8-5.1-1.9-8.1h13
		c0.4,3.1,1.5,5.3,3.5,6.7c2,1.4,4.8,2.1,8.4,2.1c1.2,0,2.4-0.2,3.6-0.4c1.1-0.2,2.2-0.6,3.1-1.1c0.9-0.5,1.6-1.2,2.1-2.1
		c0.5-0.8,0.8-1.8,0.8-3c0-1.2-0.3-2.2-0.8-3c-0.6-0.8-1.5-1.5-2.5-2.1c-1.1-0.6-2.4-1.1-4-1.5c-1.6-0.5-3.4-0.8-5.4-1.3
		c-2.8-0.6-5.3-1.3-7.7-2.1c-2.4-0.8-4.5-1.8-6.3-3c-1.8-1.2-3.2-2.8-4.3-4.7c-1-1.9-1.5-4.3-1.5-7.2s0.5-5.4,1.7-7.6
		c1.1-2.1,2.7-3.9,4.6-5.3c2-1.4,4.3-2.4,7-3.1c2.7-0.7,5.6-1,8.6-1c3.1,0,5.9,0.4,8.5,1.1c2.6,0.7,4.9,1.8,6.8,3.1s3.4,3.1,4.6,5.3
		c1.1,2.1,1.8,4.5,2.1,7.3h-12.6c-0.4-2.2-1.4-3.9-3-5.1c-1.6-1.2-3.9-1.8-6.7-1.8c-2.7,0-4.8,0.5-6.4,1.6c-1.6,1.1-2.4,2.4-2.4,4.2
		c0,1.1,0.3,2,0.9,2.8c0.6,0.7,1.5,1.3,2.7,1.8c1.1,0.5,2.6,1,4.3,1.4c1.7,0.4,3.7,0.8,5.8,1.4c2.5,0.5,5,1.2,7.3,2
		c2.4,0.8,4.4,1.8,6.2,3.1c1.8,1.3,3.2,3,4.3,4.9c1.1,2,1.6,4.4,1.6,7.4c0,2.9-0.6,5.5-1.8,7.7s-2.8,4.1-4.8,5.7
		c-2.1,1.5-4.4,2.7-7.2,3.5C320.5,177.7,317.5,178.2,314.3,178.2"/>
	<path d="M359.2,159.3l-4,4.1v13.4h-11.7v-56.1h11.7v17.5c0,3-0.1,5.5-0.2,7.7c-0.1,2.1-0.2,3.9-0.2,5.2l13.2-14.4h13.8l-14.4,14.8
		l16,25.3h-13.8L359.2,159.3z"/>
	<path d="M402.3,170.1c2.7,0,4.8-0.8,6.3-2.2c1.6-1.5,2.4-3.3,2.4-5.5v-5.2c-0.8,0.5-1.9,1-3.1,1.3s-2.5,0.6-3.8,0.9
		c-2.6,0.5-4.5,1.2-5.8,2.1s-1.9,2.1-1.9,3.8s0.6,3,1.8,3.7C399.3,169.8,400.6,170.1,402.3,170.1 M412.2,176.8
		c-0.3-0.5-0.6-1.1-0.8-1.9c-0.2-0.8-0.5-1.8-0.5-3h-0.2c-1.3,1.8-2.9,3.3-4.7,4.4c-1.8,1.1-4.3,1.6-7.4,1.6c-2,0-3.7-0.2-5.5-0.8
		c-1.7-0.5-3.1-1.3-4.4-2.3c-1.2-1-2.2-2.3-2.9-3.8c-0.7-1.5-1-3.3-1-5.3c0-2.2,0.5-4,1.2-5.5s2-2.7,3.4-3.5c1.4-0.9,3.1-1.6,5-2.1
		c1.9-0.5,4-0.8,6.2-1.1c3.6-0.5,6.1-1.1,7.7-1.8c1.6-0.7,2.4-1.8,2.4-3.3c0-1.5-0.5-2.6-1.5-3.5c-1-0.9-2.4-1.3-4.5-1.3
		c-2.3,0-4,0.5-5.1,1.5c-1.1,1-1.8,2.2-1.9,3.8h-10.9c0.1-1.7,0.5-3.4,1.2-5s1.8-3.1,3.3-4.3c1.5-1.2,3.3-2.2,5.5-3
		c2.2-0.7,4.8-1.1,7.8-1.1c2.6,0,4.8,0.2,6.6,0.5c1.8,0.4,3.5,1,4.9,1.8c2.1,1.2,3.7,2.8,4.7,4.9c1,2.1,1.5,4.4,1.5,7.1v20.6
		c0,3.1,0.5,5,1.5,5.6v0.7H412.2z"/>
	<path d="M427.5,136.7h6v-12.8h11.6v12.8h7.9v7.6h-7.9v19.9c0,1.5,0.4,2.5,1.1,3.1c0.8,0.5,1.8,0.8,3.3,0.8c0.4,0,0.8,0,1.4-0.1
		c0.5,0,1-0.1,1.4-0.1h0.6v8.8c-0.7,0.1-1.5,0.2-2.8,0.4c-1.1,0.2-2.5,0.2-4.1,0.2c-1.8,0-3.5-0.2-5-0.5c-1.5-0.3-2.8-0.9-4-1.8
		c-1.1-0.8-2-1.9-2.6-3.3c-0.6-1.3-0.9-3.1-0.9-5.1v-22.5h-6L427.5,136.7L427.5,136.7z"/>
	<path d="M456.4,136.7h6v-12.8h11.6v12.8h7.9v7.6h-7.9v19.9c0,1.5,0.4,2.5,1.1,3.1c0.8,0.5,1.8,0.8,3.3,0.8c0.4,0,0.8,0,1.4-0.1
		c0.5,0,1-0.1,1.4-0.1h0.6v8.8c-0.7,0.1-1.5,0.2-2.8,0.4c-1.1,0.2-2.5,0.2-4.1,0.2c-1.8,0-3.5-0.2-5-0.5c-1.5-0.3-2.8-0.9-4-1.8
		c-1.1-0.8-2-1.9-2.6-3.3c-0.6-1.3-0.9-3.1-0.9-5.1v-22.5h-6L456.4,136.7L456.4,136.7z"/>
	<path d="M506.8,144c-2.8,0-4.8,0.8-6.2,2.4c-1.4,1.6-2.3,3.8-2.8,6.6H515c-0.2-2.8-1-5-2.5-6.6C511,144.9,509.2,144,506.8,144
		 M507.5,178c-3.3,0-6.2-0.5-8.8-1.6c-2.6-1.1-4.8-2.6-6.6-4.5c-1.8-1.9-3.2-4.1-4.2-6.7c-1-2.6-1.5-5.3-1.5-8.4
		c0-3,0.5-5.8,1.5-8.4c1-2.6,2.4-4.8,4.2-6.7c1.8-1.9,4-3.4,6.5-4.5c2.5-1.1,5.3-1.6,8.4-1.6c2.9,0,5.4,0.5,7.7,1.4
		c2.3,0.9,4.3,2.1,6,3.7c2.3,2.2,3.9,5,5,8.3c1.1,3.3,1.5,6.9,1.5,10.8H498c0.4,3,1.4,5.3,3,7.1c1.6,1.7,3.8,2.6,6.7,2.6
		c1.8,0,3.4-0.3,4.6-1c1.1-0.7,2.1-1.7,2.8-2.9h11.5c-0.5,1.8-1.3,3.4-2.4,5c-1.1,1.5-2.4,2.9-4,4c-1.6,1.1-3.4,2-5.6,2.6
		C512.3,177.7,510,178,507.5,178"/>
	<path d="M551.8,144c-2.8,0-4.8,0.8-6.2,2.4c-1.4,1.6-2.3,3.8-2.8,6.6h17.1c-0.2-2.8-1-5-2.5-6.6C556,144.7,554.1,144,551.8,144
		 M552.4,178c-3.3,0-6.2-0.5-8.8-1.6c-2.6-1.1-4.8-2.6-6.6-4.5c-1.8-1.9-3.2-4.1-4.2-6.7c-1-2.6-1.5-5.3-1.5-8.4
		c0-3,0.5-5.8,1.5-8.4c1-2.6,2.4-4.8,4.2-6.7c1.8-1.9,4-3.4,6.5-4.5s5.3-1.6,8.4-1.6c2.9,0,5.4,0.5,7.7,1.4c2.3,0.9,4.3,2.1,6.1,3.7
		c2.3,2.2,3.9,5,5,8.3c1.1,3.3,1.5,6.9,1.5,10.8H543c0.4,3,1.4,5.3,3,7.1c1.6,1.7,3.8,2.6,6.7,2.6c1.8,0,3.4-0.3,4.6-1
		c1.1-0.7,2.1-1.7,2.8-2.9h11.5c-0.5,1.8-1.3,3.4-2.4,5c-1.1,1.5-2.4,2.9-4,4c-1.6,1.1-3.4,2-5.6,2.6
		C557.3,177.7,554.9,178,552.4,178"/>
	<path d="M574.9,136.7h6v-12.8h11.6v12.8h7.9v7.6h-7.9v19.9c0,1.5,0.4,2.5,1.1,3.1c0.8,0.5,1.8,0.8,3.3,0.8c0.4,0,0.8,0,1.4-0.1
		c0.5,0,1-0.1,1.4-0.1h0.6v8.8c-0.7,0.1-1.5,0.2-2.8,0.4c-1.1,0.2-2.5,0.2-4.1,0.2c-1.8,0-3.5-0.2-5-0.5c-1.5-0.3-2.8-0.9-4-1.8
		c-1.1-0.8-2-1.9-2.6-3.3c-0.6-1.3-0.9-3.1-0.9-5.1v-22.5h-6L574.9,136.7L574.9,136.7z"/>
	<path d="M623.1,170.1c2.7,0,4.8-0.8,6.3-2.2c1.6-1.5,2.4-3.3,2.4-5.5v-5.2c-0.8,0.5-1.9,1-3.1,1.3s-2.5,0.6-3.8,0.9
		c-2.6,0.5-4.5,1.2-5.8,2.1s-1.9,2.1-1.9,3.8s0.6,3,1.8,3.7C620.1,169.8,621.5,170.1,623.1,170.1 M633.1,176.8
		c-0.3-0.5-0.6-1.1-0.8-1.9c-0.2-0.8-0.5-1.8-0.5-3h-0.2c-1.3,1.8-2.9,3.3-4.7,4.4c-1.8,1.1-4.3,1.6-7.4,1.6c-2,0-3.7-0.2-5.5-0.8
		c-1.7-0.5-3.1-1.3-4.4-2.3c-1.2-1-2.2-2.3-2.9-3.8c-0.7-1.5-1-3.3-1-5.3c0-2.2,0.5-4,1.2-5.5s2-2.7,3.4-3.5c1.4-0.9,3.1-1.6,5-2.1
		c1.9-0.5,4-0.8,6.2-1.1c3.6-0.5,6.1-1.1,7.7-1.8c1.6-0.7,2.4-1.8,2.4-3.3c0-1.5-0.5-2.6-1.5-3.5c-1-0.9-2.4-1.3-4.5-1.3
		c-2.3,0-4,0.5-5.1,1.5c-1.1,1-1.8,2.2-1.9,3.8h-10.9c0.1-1.7,0.5-3.4,1.2-5c0.8-1.6,1.8-3.1,3.3-4.3c1.5-1.2,3.3-2.2,5.5-3
		c2.2-0.7,4.8-1.1,7.8-1.1c2.6,0,4.8,0.2,6.6,0.5c1.8,0.4,3.5,1,4.9,1.8c2.1,1.2,3.7,2.8,4.7,4.9c1,2.1,1.5,4.4,1.5,7.1v20.6
		c0,3.1,0.5,5,1.5,5.6v0.7H633.1z"/>
	<path d="M648.3,136.7h6v-12.8H666v12.8h7.9v7.6H666v19.9c0,1.5,0.4,2.5,1.1,3.1c0.8,0.5,1.8,0.8,3.3,0.8c0.4,0,0.8,0,1.4-0.1
		c0.5,0,1-0.1,1.4-0.1h0.6v8.8c-0.7,0.1-1.6,0.2-2.8,0.4c-1.1,0.2-2.5,0.2-4.1,0.2c-1.8,0-3.5-0.2-5.1-0.5c-1.5-0.3-2.8-0.9-4-1.8
		c-1.1-0.8-2-1.9-2.6-3.3c-0.6-1.3-0.9-3.1-0.9-5.1v-22.5h-6L648.3,136.7L648.3,136.7z"/>
	<path d="M698.8,144c-2.8,0-4.8,0.8-6.2,2.4c-1.4,1.6-2.3,3.8-2.8,6.6h17.1c-0.2-2.8-1-5-2.5-6.6C703,144.7,701.1,144,698.8,144
		 M699.4,178c-3.3,0-6.2-0.5-8.8-1.6c-2.6-1.1-4.8-2.6-6.6-4.5c-1.8-1.9-3.2-4.1-4.2-6.7c-1-2.6-1.5-5.3-1.5-8.4
		c0-3,0.5-5.8,1.5-8.4c1-2.6,2.4-4.8,4.2-6.7c1.8-1.9,4-3.4,6.5-4.5s5.3-1.6,8.4-1.6c2.9,0,5.4,0.5,7.7,1.4c2.3,0.9,4.3,2.1,6.1,3.7
		c2.3,2.2,3.9,5,5,8.3c1.1,3.3,1.5,6.9,1.5,10.8h-29.5c0.4,3,1.4,5.3,3,7.1c1.6,1.7,3.8,2.6,6.7,2.6c1.8,0,3.4-0.3,4.6-1
		c1.1-0.7,2.1-1.7,2.8-2.9h11.5c-0.5,1.8-1.3,3.4-2.4,5c-1.1,1.5-2.4,2.9-4,4c-1.6,1.1-3.4,2-5.6,2.6
		C704.3,177.7,701.9,178,699.4,178"/>
	<path d="M736.4,142.8h0.2c1.2-2.4,2.9-4.2,5-5.4c2.1-1.2,4.5-1.8,7.3-1.8c4.4,0,7.9,1.4,10.3,4c2.4,2.7,3.7,6.3,3.7,10.8v26.4
		h-11.8v-24.1c0-2.2-0.5-4-1.7-5.3c-1.1-1.4-2.8-2-5-2c-2.3,0-4.2,0.8-5.6,2.5c-1.4,1.7-2.1,3.7-2.1,6.3v22.6H725v-40.1h11.5
		L736.4,142.8L736.4,142.8z"/>
</g>
</svg>
